<svg version="1.1" xmlns="http://www.w3.org/2000/svg" viewBox="0 0 1996.9840901692708 965.2088937883576" width="1996.9840901692708" height="965.2088937883576">
  <!-- svg-source:excalidraw -->
  
  <defs>
    <style>
      @font-face {
        font-family: "Virgil";
        src: url("https://excalidraw.com/Virgil.woff2");
      }
      @font-face {
        font-family: "Cascadia";
        src: url("https://excalidraw.com/Cascadia.woff2");
      }
    </style>
  </defs>
  <rect x="0" y="0" width="1996.9840901692708" height="965.2088937883576" fill="#ffffff"></rect><g stroke-linecap="round" transform="translate(127.0474853515625 493.9356465171676) rotate(0 9.171112060546847 9.011390225996479)"><path d="M3.92 2.09 C3.92 2.09, 3.92 2.09, 3.92 2.09 M3.92 2.09 C3.92 2.09, 3.92 2.09, 3.92 2.09 M3.27 10.99 C4.03 7.67, 4.84 4.1, 7.54 3.45 M1.22 10.27 C3.44 8.96, 8.04 4.14, 9.56 0.66 M0.51 18.15 C7.79 15.02, 12.29 7.54, 12.43 -0.9 M4.09 16.53 C7.99 9.8, 12.37 6.58, 12.99 3.21 M6.77 13.94 C8.45 13.75, 11.98 8.48, 19.86 7.55 M8.3 17.53 C8.28 14.67, 10.85 12.36, 17.92 6.49 M8.47 21.39 C14.32 17.58, 16.2 16.47, 17.55 10.08 M9.85 18.52 C13.38 15.58, 15.21 13.85, 17.77 9.62" stroke="#228be6" stroke-width="0.5" fill="none"></path><path d="M3.96 2.04 C5.05 1.19, 7.21 1.44, 8.78 1.16 C10.35 0.89, 12.02 -0.24, 13.39 0.39 C14.76 1.02, 16.13 2.69, 16.99 4.95 C17.86 7.2, 18.99 11.66, 18.58 13.94 C18.18 16.21, 16.42 18.13, 14.58 18.59 C12.74 19.06, 9.63 17.36, 7.54 16.73 C5.46 16.1, 3.28 16.08, 2.06 14.82 C0.85 13.56, -0.28 11.62, 0.26 9.18 C0.81 6.75, 3.78 1.88, 5.33 0.2 C6.88 -1.48, 9.42 -0.94, 9.56 -0.91 M17.02 2.4 C18.63 3.77, 17.57 8.03, 17.69 10.43 C17.8 12.84, 18.97 15.94, 17.71 16.85 C16.45 17.76, 12.29 15.49, 10.13 15.88 C7.96 16.27, 6.64 20.18, 4.73 19.18 C2.82 18.18, -0.67 12.45, -1.35 9.89 C-2.03 7.34, 0.12 5.17, 0.67 3.84 C1.21 2.5, 0.79 2.2, 1.93 1.87 C3.08 1.54, 5.36 1.35, 7.55 1.84 C9.73 2.33, 13.86 4.36, 15.04 4.82 C16.23 5.28, 14.43 4.39, 14.65 4.58" stroke="#1864ab" stroke-width="1" fill="none"></path></g><g stroke-linecap="round" transform="translate(127.57839965820312 576.1479878257613) rotate(0 9.171112060546847 9.011390225996479)"><path d="M6.09 -1.33 C6.09 -1.33, 6.09 -1.33, 6.09 -1.33 M6.09 -1.33 C6.09 -1.33, 6.09 -1.33, 6.09 -1.33 M1.25 10.13 C3.36 3.97, 5.32 4.69, 12.15 -1.4 M-0.62 12.64 C4.71 7.33, 5.88 3.83, 10.95 -0.02 M4.71 17.95 C10.09 9.49, 9.31 1.81, 15.7 -1.81 M4.14 13.18 C8.47 9.66, 9.21 6.3, 16.22 2.46 M1.89 20.36 C5.72 14.68, 16.6 12.12, 15.19 5.14 M3.13 19.45 C6.26 16.27, 12.13 12.44, 15.8 3.47 M12.09 20.12 C15.45 17.67, 14.81 12.09, 20.21 6.84 M9.91 18.53 C11.94 16.91, 14.61 12.25, 20.14 9.13" stroke="#228be6" stroke-width="0.5" fill="none"></path><path d="M2.06 4.69 C2.71 3.01, 4.23 -0.21, 5.94 -1.15 C7.64 -2.08, 10.14 -2.2, 12.29 -0.94 C14.44 0.33, 17.6 4.13, 18.83 6.46 C20.06 8.79, 20.28 11.49, 19.66 13.02 C19.03 14.56, 16.93 14.71, 15.08 15.67 C13.22 16.63, 10.61 18.66, 8.53 18.77 C6.46 18.87, 4.27 17.87, 2.64 16.29 C1 14.71, -1.58 12.1, -1.27 9.27 C-0.95 6.45, 2.63 0.98, 4.52 -0.65 C6.42 -2.29, 9.57 -0.68, 10.11 -0.54 M12.3 2.94 C14.01 4.08, 17.75 6.64, 18.49 7.71 C19.22 8.78, 17.44 7.6, 16.7 9.37 C15.95 11.14, 15.75 17.39, 14.02 18.35 C12.29 19.3, 8.13 16.07, 6.32 15.12 C4.5 14.18, 4.5 13.51, 3.12 12.69 C1.74 11.86, -1.31 11.35, -1.98 10.2 C-2.64 9.04, -2.23 7.04, -0.89 5.75 C0.44 4.47, 3.87 3.02, 6.02 2.48 C8.17 1.95, 10.65 2.38, 12.01 2.56 C13.37 2.75, 14.53 4.17, 14.16 3.59" stroke="#1864ab" stroke-width="1" fill="none"></path></g><g stroke-linecap="round" transform="translate(211.89166259765625 576.6550068687301) rotate(0 9.171112060546847 9.011390225996479)"><path d="M0.78 2.01 C0.78 2.01, 0.78 2.01, 0.78 2.01 M0.78 2.01 C0.78 2.01, 0.78 2.01, 0.78 2.01 M-1.49 7.68 C-0.38 8.83, 5.33 3.52, 6.39 -0.93 M0.37 9.21 C1.57 6.08, 3.69 5.41, 8.41 -0.71 M4.39 13.25 C3.69 5.09, 11.12 0.3, 14.81 2.39 M3.29 13.2 C3.96 9.88, 11.11 5.52, 13.9 -0.48 M0.23 17.97 C9.79 17.05, 6.7 12.26, 14.15 6.19 M1.91 18.91 C9.17 13.62, 10.96 6.42, 15.68 1.8 M11.01 20.34 C11.05 13.25, 16.7 7.79, 18.01 5.01 M7.59 18.95 C9.74 14.79, 13.27 14.4, 17.15 6.21 M16.33 16.25 C16.79 11.61, 19.34 10.81, 21.93 9.96 M14.47 15.55 C16.65 12.84, 19.52 10.13, 20.85 9.77" stroke="#228be6" stroke-width="0.5" fill="none"></path><path d="M5.93 -1.14 C7.51 -2.18, 10.13 -2.21, 12.28 -0.94 C14.43 0.33, 17.6 4.13, 18.83 6.45 C20.06 8.78, 20.28 11.48, 19.66 13.01 C19.04 14.55, 16.94 14.71, 15.09 15.67 C13.23 16.63, 10.61 18.66, 8.54 18.77 C6.46 18.87, 4.28 17.88, 2.64 16.3 C1.01 14.72, -0.91 11.61, -1.26 9.28 C-1.62 6.95, -1.48 3.94, 0.53 2.3 C2.54 0.65, 8.09 -0.39, 10.79 -0.57 C13.5 -0.76, 16.54 0.75, 16.76 1.19 M9.38 2.66 C11.11 1.71, 11.67 -1.24, 13.02 -0.25 C14.38 0.75, 17.12 6.97, 17.5 8.66 C17.88 10.35, 16 8.95, 15.32 9.9 C14.64 10.85, 15.18 13.02, 13.43 14.37 C11.68 15.72, 7.19 17.72, 4.82 18 C2.45 18.27, 0.12 17.29, -0.79 16.02 C-1.7 14.76, -1.04 12.35, -0.62 10.42 C-0.2 8.49, 0.03 5.74, 1.74 4.45 C3.44 3.16, 8.99 3.81, 9.63 2.67 C10.27 1.54, 5.38 -2.22, 5.57 -2.34" stroke="#1864ab" stroke-width="1" fill="none"></path></g><g stroke-linecap="round" transform="translate(214.023681640625 495.60602615583946) rotate(0 9.17111206054685 9.011390225996479)"><path d="M1.43 1.25 C1.43 1.25, 1.43 1.25, 1.43 1.25 M1.43 1.25 C1.43 1.25, 1.43 1.25, 1.43 1.25 M-2.16 10.91 C2.84 6.52, 2.91 3.45, 6.78 -1.71 M-0.15 8.13 C2.71 6.37, 6.55 1.33, 8.57 0.69 M-0.55 10.34 C6.98 5.19, 12.15 5.21, 15.16 2.08 M0.01 14.45 C5.46 11.77, 7.19 6.94, 11.69 -1.61 M7.47 19.22 C6.41 12.75, 10.8 10.18, 17.6 0.21 M5.14 17.94 C6.94 11.04, 12.18 5.92, 17.25 4.83 M6.36 18.96 C10.95 14.3, 12.9 10.46, 15.69 8.43 M6.67 18.31 C10.16 17.92, 10.35 13.97, 19.29 8.08 M14.02 14.73 C16.61 14, 19.92 12.34, 22.26 10.87 M13.94 15.96 C16.93 13.37, 18.4 12.81, 20.63 8.44" stroke="#228be6" stroke-width="0.5" fill="none"></path><path d="M13.05 -0.5 C15.09 0.78, 18.08 4.89, 19.13 7.28 C20.18 9.67, 20.16 12.37, 19.35 13.84 C18.55 15.31, 16.26 15.31, 14.31 16.1 C12.36 16.9, 9.7 18.69, 7.66 18.61 C5.62 18.53, 3.56 17.33, 2.07 15.62 C0.58 13.92, -1.1 10.74, -1.26 8.4 C-1.42 6.07, -0.33 3.16, 1.11 1.62 C2.54 0.09, 4.38 -1.12, 7.34 -0.79 C10.3 -0.47, 16.94 1.75, 18.88 3.58 C20.82 5.41, 19.43 9.98, 19 10.19 M13.84 0.38 C15.06 1.4, 17.55 7.92, 17.72 9.65 C17.88 11.39, 15.71 9.95, 14.83 10.8 C13.96 11.65, 14.31 13.6, 12.47 14.75 C10.64 15.9, 6.14 17.62, 3.84 17.69 C1.54 17.75, -0.62 16.54, -1.34 15.16 C-2.06 13.78, -1.12 11.31, -0.48 9.41 C0.16 7.51, 0.65 4.9, 2.5 3.77 C4.36 2.64, 9.01 3.32, 10.67 2.64 C12.32 1.95, 11.31 -0.45, 12.44 -0.33 C13.58 -0.22, 17.4 3.23, 17.48 3.34" stroke="#1864ab" stroke-width="1" fill="none"></path></g><g stroke-linecap="round" transform="translate(210.0257568359375 404.18232010115196) rotate(0 9.171112060546847 9.011390225996479)"><path d="M2.03 5.74 C2.03 5.74, 2.03 5.74, 2.03 5.74 M2.03 5.74 C2.03 5.74, 2.03 5.74, 2.03 5.74 M2.11 12.48 C1.85 9.13, 4.33 5.64, 13.82 4.25 M0.98 13.78 C4.31 9.34, 7 8.23, 12.39 2.74 M5.12 12.65 C9.53 14.27, 13.62 9.66, 13.83 4.8 M5.68 17.15 C8.59 10.93, 9.94 5.52, 17.46 -0.35 M5.53 18.86 C8.87 16.8, 15.16 7.84, 19.05 3.75 M6.04 17.45 C10.89 12.34, 16.26 10.41, 17.83 7.66 M12.68 17.88 C14.41 14.82, 16.02 13.51, 18.19 9.42 M12.63 19.6 C13.58 16, 18.1 13.86, 20.57 10.18" stroke="#228be6" stroke-width="0.5" fill="none"></path><path d="M4.58 2.94 C6.42 2.24, 9.12 1.61, 11.04 1.33 C12.97 1.05, 14.84 0.09, 16.13 1.27 C17.41 2.45, 18.57 6.14, 18.75 8.4 C18.94 10.66, 18.56 13.31, 17.25 14.81 C15.94 16.3, 13.02 17.14, 10.9 17.37 C8.79 17.59, 6.3 16.98, 4.56 16.17 C2.82 15.37, 0.94 14.22, 0.47 12.53 C0 10.85, 0.74 7.89, 1.75 6.06 C2.76 4.23, 5.47 2.6, 6.53 1.56 C7.59 0.52, 7.96 -0.3, 8.11 -0.2 M15.7 5.26 C16.85 6.43, 16.02 5.03, 16.16 6.16 C16.29 7.29, 17.76 10.03, 16.52 12.03 C15.28 14.03, 11.12 17.06, 8.72 18.16 C6.31 19.26, 3.56 19.26, 2.09 18.61 C0.62 17.95, 0.3 16.04, -0.11 14.21 C-0.51 12.39, -1.36 9.41, -0.35 7.68 C0.65 5.95, 4.52 5.51, 5.92 3.83 C7.31 2.15, 5.91 -2.48, 8.02 -2.42 C10.14 -2.35, 17.55 3.68, 18.61 4.22 C19.67 4.76, 14.88 0.58, 14.41 0.81" stroke="#1864ab" stroke-width="1" fill="none"></path></g><g stroke-linecap="round"><g transform="translate(136.40692138671875 487.24440002441406) rotate(0 33.01626540377487 -36.618469266184945)"><path d="M-1.09 -1.94 C0.65 -11.03, 0.45 -22.56, -1.13 -34.33 M0.59 -0.64 C-0.9 -11.57, -2.13 -22.15, -2.52 -32.61 M-2.27 -33.82 C16 -42.23, 33.12 -53.07, 67.54 -72.6 M-1.97 -34.34 C23.57 -46.92, 49.46 -60.69, 68.55 -71.54" stroke="#666" stroke-width="1" fill="none"></path></g><g transform="translate(136.40692138671875 487.24440002441406) rotate(0 33.01626540377487 -36.618469266184945)"><path d="M47.79 -50.83 C57.24 -55.93, 64.81 -63.62, 69.51 -72.47 M49.46 -49.53 C55.13 -56.98, 61 -64.04, 68.12 -70.75" stroke="#666" stroke-width="1" fill="none"></path></g><g transform="translate(136.40692138671875 487.24440002441406) rotate(0 33.01626540377487 -36.618469266184945)"><path d="M37.83 -68.78 C50.73 -67.39, 61.86 -68.67, 69.51 -72.47 M39.51 -67.47 C48.49 -69.07, 57.62 -70.28, 68.12 -70.75" stroke="#666" stroke-width="1" fill="none"></path></g></g><g stroke-linecap="round"><g transform="translate(136.87354143951575 567.1065273478155) rotate(0 0.14231945132081592 -24.55106931835087)"><path d="M1.2 0.92 C1.89 -10.37, 0.99 -24.31, 0.01 -49.63 M-0.08 -0.67 C-1.09 -16.01, -1.05 -30.53, -1.15 -50.03" stroke="#666" stroke-width="1" fill="none"></path></g><g transform="translate(136.87354143951575 567.1065273478155) rotate(0 0.14231945132081592 -24.55106931835087)"><path d="M8.8 -25.44 C7.44 -30.61, 4.63 -38.34, -0.62 -49.21 M7.52 -27.04 C4.12 -34.11, 1.6 -40.32, -1.77 -49.6" stroke="#666" stroke-width="1" fill="none"></path></g><g transform="translate(136.87354143951575 567.1065273478155) rotate(0 0.14231945132081592 -24.55106931835087)"><path d="M-8.46 -25.35 C-5.82 -30.37, -4.63 -38.13, -0.62 -49.21 M-9.73 -26.95 C-7.78 -33.94, -4.94 -40.17, -1.77 -49.6" stroke="#666" stroke-width="1" fill="none"></path></g></g><g stroke-linecap="round"><g transform="translate(219.2981976059882 568.694995681311) rotate(0 0.551687159575522 -25.742685400482117)"><path d="M1.73 1.33 C0.86 -11.63, 0.64 -20.58, 1.26 -51.55 M-0.63 -0.34 C-0.14 -11.66, -0.09 -24.48, 1.5 -52.81" stroke="#666" stroke-width="1" fill="none"></path></g><g transform="translate(219.2981976059882 568.694995681311) rotate(0 0.551687159575522 -25.742685400482117)"><path d="M11.02 -26.3 C8.51 -33.62, 6.5 -36.99, 1.7 -51.64 M8.66 -27.97 C7.03 -32.84, 5 -39.16, 1.94 -52.9" stroke="#666" stroke-width="1" fill="none"></path></g><g transform="translate(219.2981976059882 568.694995681311) rotate(0 0.551687159575522 -25.742685400482117)"><path d="M-6.99 -27.18 C-5.84 -34.41, -4.19 -37.6, 1.7 -51.64 M-9.35 -28.85 C-6.72 -33.39, -4.5 -39.5, 1.94 -52.9" stroke="#666" stroke-width="1" fill="none"></path></g></g><g stroke-linecap="round"><g transform="translate(223.05777266642178 488.71030372123494) rotate(0 -1.0728075152968017 -31.092069974691924)"><path d="M0.96 -0.93 C-0.65 -20.92, -1.6 -42.31, -3.1 -62.98 M-0.43 0.79 C-0.66 -14.22, -0.01 -29.37, -2.04 -62.1" stroke="#666" stroke-width="1" fill="none"></path></g><g transform="translate(223.05777266642178 488.71030372123494) rotate(0 -1.0728075152968017 -31.092069974691924)"><path d="M10.51 -35.35 C5.83 -43.11, 1.5 -52.34, -3.31 -62.26 M9.12 -33.63 C6.4 -40.49, 4.77 -47.45, -2.24 -61.38" stroke="#666" stroke-width="1" fill="none"></path></g><g transform="translate(223.05777266642178 488.71030372123494) rotate(0 -1.0728075152968017 -31.092069974691924)"><path d="M-9.99 -34.38 C-7.58 -42.61, -4.82 -52.17, -3.31 -62.26 M-11.38 -32.66 C-9.32 -39.67, -6.17 -46.86, -2.24 -61.38" stroke="#666" stroke-width="1" fill="none"></path></g></g><g stroke-linecap="round"><g transform="translate(136.46499633789062 597.1026458740234) rotate(0 0.53721231687814 25.37290073465556)"><path d="M0.53 0.82 C0.94 19.29, -0.05 36.07, 0.01 48.19 M-0.63 0.42 C0.59 13.03, 0.29 26.97, 1.7 50.32" stroke="#666" stroke-width="1" fill="none"></path></g></g><g stroke-linecap="round"><g transform="translate(219.53359985351562 598.6539154052734) rotate(0 -0.040018242082553 24.408331506885588)"><path d="M0.21 1.17 C-0.92 12.4, -0.75 23.87, 0.21 48.66 M0.44 -0.09 C-0.18 19.49, 0.72 38.43, 0.44 48.91" stroke="#666" stroke-width="1" fill="none"></path></g></g><g transform="translate(280.1448059082031 491.4760742187501) rotate(0 24 12)"><text x="0" y="19" font-family="Cascadia, Segoe UI Emoji" font-size="20px" fill="#666" text-anchor="start" style="white-space: pre;" direction="ltr">feat</text></g><g transform="translate(10 490.4089813232422) rotate(0 35 12)"><text x="0" y="19" font-family="Cascadia, Segoe UI Emoji" font-size="20px" fill="#222" text-anchor="start" style="white-space: pre;" direction="ltr">master</text></g><g transform="translate(273.7691345214844 399.72634887695324) rotate(0 77 12)"><text x="0" y="19" font-family="Cascadia, Segoe UI Emoji" font-size="20px" fill="#222" text-anchor="start" style="white-space: pre;" direction="ltr">feat (merged)</text></g><g transform="translate(114.32086181640625 305.29288482666016) rotate(0 117 13.5)"><text x="0" y="21" font-family="Cascadia, Segoe UI Emoji" font-size="20px" fill="#333" text-anchor="start" style="white-space: pre;" direction="ltr">master 合到 feat 效果</text></g><g stroke-linecap="round" transform="translate(726.9944966634114 494.51707419728905) rotate(0 9.171112060546847 9.011390225996479)"><path d="M3.2 0.13 C3.2 0.13, 3.2 0.13, 3.2 0.13 M3.2 0.13 C3.2 0.13, 3.2 0.13, 3.2 0.13 M1.27 6.45 C4.26 6.32, 4.41 3.77, 7.03 0.59 M1.95 7.29 C4.21 6.12, 5.64 1.96, 7.9 0.33 M0.98 16.64 C4.33 10.73, 9.98 2.5, 11.65 4.3 M0.53 14.71 C4.11 11.41, 8.48 7, 13.31 0.31 M4.28 15.43 C7.86 15.36, 12.37 5.31, 13.59 0.26 M4.26 17.77 C6.22 14.45, 10.8 8.87, 17.63 5.14 M8.98 16.57 C9.95 17.09, 15.26 14.16, 18.27 7.65 M7.97 18.03 C10.43 14.44, 13.85 13.11, 18.43 9.08 M12.78 17.43 C16.03 17.36, 18.03 15.85, 18.55 11.37 M14.44 18.63 C14.7 16.79, 15.62 15.36, 18.73 12.43" stroke="#228be6" stroke-width="0.5" fill="none"></path><path d="M15.25 2.42 C16.26 4.07, 16.9 8.44, 17.21 10.59 C17.53 12.73, 18.1 14.2, 17.13 15.3 C16.16 16.39, 13.37 16.92, 11.4 17.17 C9.44 17.42, 7.1 17.57, 5.31 16.81 C3.53 16.05, 1.67 14.48, 0.69 12.63 C-0.29 10.77, -1.05 7.82, -0.58 5.68 C-0.11 3.54, 1.43 0.51, 3.51 -0.23 C5.58 -0.97, 9.12 0.07, 11.89 1.24 C14.65 2.41, 19.3 5.05, 20.11 6.79 C20.93 8.53, 17.52 11.63, 16.77 11.69 M16.27 1.98 C18.59 3.09, 20.82 6.02, 20.97 8.36 C21.12 10.71, 19.14 14.27, 17.16 16.05 C15.18 17.83, 11.17 18.74, 9.1 19.04 C7.03 19.34, 6.54 18.42, 4.72 17.84 C2.9 17.26, -1.06 17.34, -1.81 15.56 C-2.56 13.78, -0.54 9.13, 0.24 7.15 C1.02 5.18, 1.09 4.5, 2.86 3.74 C4.63 2.98, 8.94 2.32, 10.85 2.6 C12.76 2.87, 13.99 5.54, 14.3 5.38 C14.61 5.21, 13.03 1.71, 12.71 1.61" stroke="#1864ab" stroke-width="1" fill="none"></path></g><g stroke-linecap="round" transform="translate(727.525410970052 576.7294155058828) rotate(0 9.171112060546847 9.011390225996479)"><path d="M4.97 0.35 C4.97 0.35, 4.97 0.35, 4.97 0.35 M4.97 0.35 C4.97 0.35, 4.97 0.35, 4.97 0.35 M2.03 7.8 C3.4 6.95, 7.14 3.3, 11.99 2.67 M2.15 8.73 C6.09 6.95, 6.21 3.51, 10.55 0.87 M5.36 13.04 C5.98 12.95, 6.04 9.8, 11.21 4.46 M3.94 13.4 C5.17 11.71, 7.08 9.07, 13.08 4.04 M4.73 17.8 C12.61 11.01, 11.1 8, 17.9 2.54 M8.02 15.67 C11.95 12.67, 14.21 6.59, 17.83 5.08 M8.2 20.51 C15.19 13.95, 12.96 15.08, 20.91 10.13 M9.46 17.56 C13.96 15.58, 13.72 15.06, 18.79 6.97" stroke="#228be6" stroke-width="0.5" fill="none"></path><path d="M14.92 4.16 C16.45 5.25, 17.77 4.46, 18.05 6.12 C18.32 7.78, 17.4 11.93, 16.55 14.11 C15.69 16.3, 14.59 18.83, 12.89 19.26 C11.2 19.68, 8.38 17.96, 6.37 16.65 C4.37 15.34, 1.87 12.89, 0.86 11.37 C-0.14 9.85, -0.3 9.34, 0.36 7.54 C1.01 5.73, 3.06 1.66, 4.8 0.55 C6.53 -0.57, 8.3 0.02, 10.75 0.85 C13.21 1.68, 18.2 3.75, 19.52 5.53 C20.85 7.31, 18.96 11.57, 18.69 11.53 M10.59 -0.24 C12.54 0.49, 12.04 2.76, 13.33 4.37 C14.61 5.97, 17.41 7.87, 18.3 9.4 C19.18 10.93, 19.71 11.71, 18.64 13.53 C17.56 15.35, 13.77 19.78, 11.86 20.33 C9.95 20.87, 8.81 18.27, 7.17 16.82 C5.54 15.36, 3.16 13.4, 2.06 11.6 C0.96 9.8, 0.57 7.86, 0.57 6.01 C0.57 4.15, 0.7 1.39, 2.06 0.46 C3.43 -0.47, 7.33 0.15, 8.76 0.43 C10.19 0.71, 10.7 2.43, 10.64 2.14" stroke="#1864ab" stroke-width="1" fill="none"></path></g><g stroke-linecap="round" transform="translate(811.8386739095051 577.2364345488515) rotate(0 9.171112060546875 9.011390225996479)"><path d="M0.05 5.35 C0.05 5.35, 0.05 5.35, 0.05 5.35 M0.05 5.35 C0.05 5.35, 0.05 5.35, 0.05 5.35 M-0.01 10.46 C2.01 8.01, 5.21 7.16, 7.79 3.28 M1.32 8.74 C2.79 7.72, 4.83 7.09, 7.19 2.39 M4.88 10.21 C7.25 10.87, 10.07 4.31, 14.17 -1.25 M5.53 11.99 C8.51 7.44, 11.43 5.82, 13.28 1.2 M5.95 14.3 C5.69 10.42, 9.39 12.69, 14.76 2.51 M5.88 16.16 C11.46 14.12, 15.26 5.92, 15.93 4.75 M11.05 20.8 C13.72 14.56, 15.53 14.19, 18.99 5.84 M10.11 19.14 C14.09 16.25, 15.76 13.9, 19.35 5.12" stroke="#228be6" stroke-width="0.5" fill="none"></path><path d="M6.29 1.27 C8.24 0.02, 10.41 -0.87, 12.28 -0.43 C14.15 0.01, 16.46 2.07, 17.49 3.88 C18.53 5.69, 18.97 8.53, 18.48 10.42 C17.98 12.31, 16.11 14.19, 14.5 15.22 C12.89 16.25, 10.41 16.23, 8.81 16.6 C7.22 16.98, 6.03 18.4, 4.94 17.48 C3.85 16.56, 3.16 13.04, 2.3 11.07 C1.44 9.11, -0.88 7.53, -0.24 5.69 C0.39 3.84, 4.12 1.21, 6.11 0 C8.11 -1.21, 11.37 -1.82, 11.74 -1.58 M7.81 2.13 C8.75 1.85, 9.51 1.77, 11.05 2.47 C12.59 3.18, 16.37 4.36, 17.05 6.38 C17.73 8.39, 15.66 12.79, 15.13 14.57 C14.6 16.36, 15.26 16.2, 13.87 17.09 C12.48 17.99, 8.56 19.89, 6.79 19.96 C5.03 20.02, 4.6 18.83, 3.25 17.51 C1.91 16.18, -0.62 14.54, -1.28 12 C-1.93 9.47, -1.73 3.98, -0.7 2.27 C0.33 0.56, 3.91 1.84, 4.89 1.76 C5.88 1.68, 4.48 1.85, 5.2 1.79" stroke="#1864ab" stroke-width="1" fill="none"></path></g><g stroke-linecap="round" transform="translate(809.9727681477864 494.81700095510155) rotate(0 9.171112060546875 9.011390225996479)"><path d="M2.57 2.24 C2.57 2.24, 2.57 2.24, 2.57 2.24 M2.57 2.24 C2.57 2.24, 2.57 2.24, 2.57 2.24 M1.93 7.97 C6.02 6.18, 7.35 3.66, 7.53 1.75 M2.71 7.73 C5.68 6.21, 6.95 2.63, 9.7 0.76 M1.78 17.14 C4.28 10.62, 10.38 2.68, 16.05 0.64 M3.55 12.9 C6.33 11.52, 9.24 5.34, 13.42 1.26 M2.97 13.5 C7.92 14.49, 12.53 5.02, 20.63 0.63 M7.25 18.67 C10.64 11.01, 13.09 7.89, 16.02 2.42 M11.16 17.25 C14.21 15.11, 15.5 9.53, 17.98 5.63 M11.33 18.78 C12.71 16.68, 13.08 12.14, 18.86 7.33" stroke="#228be6" stroke-width="0.5" fill="none"></path><path d="M16.08 1.61 C17.51 2.7, 18.91 5.71, 19.07 7.85 C19.24 9.99, 18.47 12.86, 17.09 14.45 C15.71 16.05, 12.89 17.19, 10.8 17.44 C8.7 17.69, 5.98 16.49, 4.53 15.96 C3.07 15.44, 2.46 15.81, 2.07 14.28 C1.69 12.76, 2.13 8.8, 2.2 6.81 C2.26 4.83, 1.5 3.51, 2.46 2.36 C3.42 1.21, 5.33 -0.06, 7.96 -0.11 C10.59 -0.16, 16.58 1.02, 18.26 2.07 C19.94 3.13, 18.48 5.54, 18.03 6.22 M7.38 1.38 C9.07 1.2, 13.59 1.65, 14.95 3.23 C16.32 4.8, 15.3 8.95, 15.59 10.83 C15.87 12.72, 17.49 13.03, 16.66 14.52 C15.83 16, 12.34 18.87, 10.62 19.75 C8.9 20.62, 8.16 20.44, 6.32 19.76 C4.48 19.08, 1.05 18.02, -0.4 15.67 C-1.86 13.31, -2.73 7.7, -2.43 5.63 C-2.13 3.56, -0.32 3.93, 1.37 3.24 C3.06 2.54, 6 1.93, 7.7 1.47 C9.4 1.02, 10.95 0.52, 11.58 0.52" stroke="#1864ab" stroke-width="1" fill="none"></path></g><g stroke-linecap="round" transform="translate(726.7911275227864 402.57774314260155) rotate(0 9.171112060546847 9.011390225996479)"><path d="M0.98 3.5 C0.98 3.5, 0.98 3.5, 0.98 3.5 M0.98 3.5 C0.98 3.5, 0.98 3.5, 0.98 3.5 M-1.75 11 C0.82 8.45, 4.43 5.76, 6.13 4.95 M-1.06 12.34 C1.42 8.65, 5.16 4.88, 6.79 4.06 M4.72 15.38 C6.83 11.79, 6.63 8.95, 14.1 -0.7 M2.5 13.31 C4.09 11.21, 8.21 9.2, 15.49 0.54 M2.78 15.08 C8.76 13.65, 10.01 11.65, 14.88 4.36 M4.7 15.78 C7.68 13.65, 9.37 9.07, 17.46 2.9 M7.24 20.11 C13.43 18.78, 17.04 14.96, 16.61 5.73 M7.98 20.66 C13.27 15.41, 16.99 12.4, 17.84 7.47" stroke="#228be6" stroke-width="0.5" fill="none"></path><path d="M5.16 1.64 C6.7 1.09, 11.66 -0.25, 13.6 0.04 C15.54 0.32, 15.98 1.19, 16.81 3.34 C17.64 5.48, 19.25 10.8, 18.57 12.91 C17.89 15.01, 14.43 14.82, 12.73 15.99 C11.02 17.16, 10.12 20.24, 8.37 19.92 C6.62 19.61, 3.89 15.56, 2.25 14.12 C0.61 12.68, -1.21 13.02, -1.47 11.3 C-1.73 9.59, -1.1 5.86, 0.7 3.83 C2.49 1.8, 7.83 -0.22, 9.29 -0.9 C10.76 -1.58, 9.86 -0.45, 9.5 -0.27" stroke="#1864ab" stroke-width="1.5" fill="none" stroke-dasharray="8 9"></path></g><g stroke-linecap="round"><g transform="translate(736.61620768741 567.6885941627235) rotate(0 0.1524199927225709 -25.363271259206726)"><path d="M1 0.42 C0.93 -13.66, 0.92 -25.81, -0.19 -49.82 M-0.69 0.51 C0.49 -11.21, -0.27 -24.95, -0.12 -51.24" stroke="#666" stroke-width="1" fill="none"></path></g><g transform="translate(736.61620768741 567.6885941627235) rotate(0 0.1524199927225709 -25.363271259206726)"><path d="M9.54 -27.13 C7.2 -34.29, 5.05 -39.58, 0.05 -50.61 M7.85 -27.04 C7.01 -32.34, 4.24 -39.61, 0.12 -52.03" stroke="#666" stroke-width="1" fill="none"></path></g><g transform="translate(736.61620768741 567.6885941627235) rotate(0 0.1524199927225709 -25.363271259206726)"><path d="M-7.71 -27.1 C-5.63 -34.4, -3.36 -39.7, 0.05 -50.61 M-9.4 -27.01 C-6.07 -32.21, -4.67 -39.49, 0.12 -52.03" stroke="#666" stroke-width="1" fill="none"></path></g></g><g stroke-linecap="round"><g transform="translate(818.422627766927 569.3802405463324) rotate(0 -0.9938199184834957 -26.618178569711745)"><path d="M0.74 -0.73 C-0.04 -20.17, -1.27 -39.8, -2.73 -54.23 M0.54 0.99 C-0.14 -13.62, -0.14 -26.93, -1.62 -53.3" stroke="#666" stroke-width="1" fill="none"></path></g><g transform="translate(818.422627766927 569.3802405463324) rotate(0 -0.9938199184834957 -26.618178569711745)"><path d="M9.58 -29.09 C5.62 -37.61, 1.06 -46.36, -2.78 -53.46 M9.38 -27.36 C6.35 -34.88, 4.19 -41.15, -1.68 -52.52" stroke="#666" stroke-width="1" fill="none"></path></g><g transform="translate(818.422627766927 569.3802405463324) rotate(0 -0.9938199184834957 -26.618178569711745)"><path d="M-8.9 -28.2 C-5.96 -37.1, -3.61 -46.17, -2.78 -53.46 M-9.1 -26.47 C-7.66 -34.3, -5.34 -40.79, -1.68 -52.52" stroke="#666" stroke-width="1" fill="none"></path></g></g><g stroke-linecap="round"><g transform="translate(736.4120076497395 597.6840735541449) rotate(0 0.36548928130707736 24.57484896015376)"><path d="M0.81 0.05 C0.78 16.5, -0.11 31.59, 0.18 48.06 M-0.14 -0.55 C0.98 16.56, 1.16 35.49, 0.44 49.7" stroke="#666" stroke-width="1" fill="none"></path></g></g><g stroke-linecap="round"><g transform="translate(819.3334554036458 597.1291419135199) rotate(0 2.067659227035392 20.91581751871854)"><path d="M0.17 0.63 C-0.2 10.78, 0.59 20.49, 4.04 42.62 M0.24 -0.79 C1.09 17.37, 1.44 33.44, 3.25 41.35" stroke="#666" stroke-width="1" fill="none"></path></g></g><g transform="translate(870.2240804036458 492.6962500678169) rotate(0 24 12)"><text x="0" y="19" font-family="Cascadia, Segoe UI Emoji" font-size="20px" fill="#666" text-anchor="start" style="white-space: pre;" direction="ltr">feat</text></g><g transform="translate(611.7423604329426 492.2652503119574) rotate(0 35 12)"><text x="0" y="19" font-family="Cascadia, Segoe UI Emoji" font-size="20px" fill="#222" text-anchor="start" style="white-space: pre;" direction="ltr">master</text></g><g transform="translate(529.8368123372395 399.2283850775825) rotate(0 77 12)"><text x="0" y="19" font-family="Cascadia, Segoe UI Emoji" font-size="20px" fill="#222" text-anchor="start" style="white-space: pre;" direction="ltr">feat (merged)</text></g><g stroke-linecap="round"><g transform="translate(818.30457090035 490.2829428872561) rotate(0 -34.32781053089809 -38.453642545301705)"><path d="M-0.91 -1.27 C-0.3 -13.49, 0.58 -28.28, -0.21 -37.99 M0.79 -0.34 C-0.28 -14, -0.69 -28.4, -2.4 -36.65 M-2.48 -35.68 C-17.19 -45.22, -28.92 -51.19, -69.44 -76.56 M-1.61 -37.42 C-17.44 -46.15, -32.97 -55.94, -66.89 -75.84" stroke="#666" stroke-width="1" fill="none"></path></g><g transform="translate(818.30457090035 490.2829428872561) rotate(0 -34.32781053089809 -38.453642545301705)"><path d="M-38.31 -71.59 C-47.68 -72.77, -56.77 -76.29, -65.63 -76.66 M-36.61 -70.66 C-48.22 -72.33, -59.38 -74.61, -67.82 -75.31" stroke="#666" stroke-width="1" fill="none"></path></g><g transform="translate(818.30457090035 490.2829428872561) rotate(0 -34.32781053089809 -38.453642545301705)"><path d="M-48.76 -53.92 C-54.41 -61.31, -59.78 -71.12, -65.63 -76.66 M-47.06 -52.99 C-54.78 -61.39, -61.93 -70.43, -67.82 -75.31" stroke="#666" stroke-width="1" fill="none"></path></g></g><g stroke-linecap="round"><g transform="translate(737.5274394582673 488.53627356636343) rotate(0 -1.3173566234193004 -30.24008582781488)"><path d="M-0.19 0.47 C0.49 -15.21, -3.06 -26.59, -1.34 -59.55 M0.03 -0.69 C-1.38 -24.44, -1.21 -47.28, -2.67 -60.95" stroke="#666" stroke-width="1" fill="none"></path></g><g transform="translate(737.5274394582673 488.53627356636343) rotate(0 -1.3173566234193004 -30.24008582781488)"><path d="M9.24 -33.03 C7.93 -41.52, 2.21 -45.66, -1.77 -59.96 M9.46 -34.19 C4.12 -44.75, 0.38 -54.47, -3.1 -61.36" stroke="#666" stroke-width="1" fill="none"></path></g><g transform="translate(737.5274394582673 488.53627356636343) rotate(0 -1.3173566234193004 -30.24008582781488)"><path d="M-11.23 -31.68 C-8.08 -40.35, -9.31 -44.78, -1.77 -59.96 M-11.02 -32.84 C-8.23 -44.06, -3.85 -54.31, -3.1 -61.36" stroke="#666" stroke-width="1" fill="none"></path></g></g><g transform="translate(618.2247517903645 305.47390492757177) rotate(0 117 13.5)"><text x="0" y="21" font-family="Cascadia, Segoe UI Emoji" font-size="20px" fill="#1864ab" text-anchor="start" style="white-space: pre;" direction="ltr">feat 合到 master 效果</text></g><g stroke-linecap="round"><g transform="translate(87.70797729492188 503.2543768617037) rotate(0 10.179443359375 0.05546690362081108)"><path d="M0 0 C5.34 0.03, 10.68 0.06, 20.36 0.11 M0 0 C7.01 0.04, 14.02 0.08, 20.36 0.11" stroke="#1864ab" stroke-width="1" fill="none"></path></g><g transform="translate(87.70797729492188 503.2543768617037) rotate(0 10.179443359375 0.05546690362081108)"><path d="M10.77 3.54 C13.29 2.64, 15.8 1.74, 20.36 0.11 M10.77 3.54 C14.07 2.36, 17.37 1.18, 20.36 0.11" stroke="#1864ab" stroke-width="1" fill="none"></path></g><g transform="translate(87.70797729492188 503.2543768617037) rotate(0 10.179443359375 0.05546690362081108)"><path d="M10.81 -3.42 C13.32 -2.5, 15.82 -1.57, 20.36 0.11 M10.81 -3.42 C14.1 -2.21, 17.39 -0.99, 20.36 0.11" stroke="#1864ab" stroke-width="1" fill="none"></path></g></g><g stroke-linecap="round"><g transform="translate(252.79364013671875 502.99812075818807) rotate(178.70307616762219 10.179443359375 0.05546690362081108)"><path d="M0 0 C6.68 0.04, 13.35 0.07, 20.36 0.11" stroke="#1864ab" stroke-width="1.5" fill="none" stroke-dasharray="8 9"></path></g><g transform="translate(252.79364013671875 502.99812075818807) rotate(178.70307616762219 10.179443359375 0.05546690362081108)"><path d="M10.77 3.54 C13.92 2.42, 17.06 1.29, 20.36 0.11" stroke="#1864ab" stroke-width="1.5" fill="none"></path></g><g transform="translate(252.79364013671875 502.99812075818807) rotate(178.70307616762219 10.179443359375 0.05546690362081108)"><path d="M10.81 -3.42 C13.94 -2.26, 17.07 -1.11, 20.36 0.11" stroke="#1864ab" stroke-width="1.5" fill="none"></path></g></g><g stroke-linecap="round"><g transform="translate(247.0116795380667 412.6162023737129) rotate(178.70307616762219 10.175942532246324 0.21010078078290917)"><path d="M0 0 C5.18 0.11, 10.36 0.21, 20.35 0.42 M0 0 C6.29 0.13, 12.58 0.26, 20.35 0.42" stroke="#1864ab" stroke-width="1" fill="none"></path></g><g transform="translate(247.0116795380667 412.6162023737129) rotate(178.70307616762219 10.175942532246324 0.21010078078290917)"><path d="M10.72 3.7 C13.17 2.87, 15.62 2.03, 20.35 0.42 M10.72 3.7 C13.69 2.69, 16.67 1.67, 20.35 0.42" stroke="#1864ab" stroke-width="1" fill="none"></path></g><g transform="translate(247.0116795380667 412.6162023737129) rotate(178.70307616762219 10.175942532246324 0.21010078078290917)"><path d="M10.86 -3.26 C13.28 -2.32, 15.69 -1.39, 20.35 0.42 M10.86 -3.26 C13.79 -2.12, 16.73 -0.98, 20.35 0.42" stroke="#1864ab" stroke-width="1" fill="none"></path></g></g><g stroke-linecap="round"><g transform="translate(689.3399251302083 412.7643950709995) rotate(0 10.179443359375 0.030022041865663596)"><path d="M0 0 C5.16 0.02, 10.31 0.03, 20.36 0.06 M0 0 C7.86 0.02, 15.73 0.05, 20.36 0.06" stroke="#1864ab" stroke-width="1" fill="none"></path></g><g transform="translate(689.3399251302083 412.7643950709995) rotate(0 10.179443359375 0.030022041865663596)"><path d="M10.78 3.51 C13.21 2.64, 15.63 1.76, 20.36 0.06 M10.78 3.51 C14.48 2.18, 18.18 0.85, 20.36 0.06" stroke="#1864ab" stroke-width="1" fill="none"></path></g><g transform="translate(689.3399251302083 412.7643950709995) rotate(0 10.179443359375 0.030022041865663596)"><path d="M10.8 -3.45 C13.22 -2.56, 15.64 -1.67, 20.36 0.06 M10.8 -3.45 C14.49 -2.09, 18.19 -0.74, 20.36 0.06" stroke="#1864ab" stroke-width="1" fill="none"></path></g></g><g stroke-linecap="round"><g transform="translate(690.1513570149739 505.6689954597939) rotate(0 10.179443359375 0.05546690362081108)"><path d="M0 0 C5.95 0.03, 11.89 0.06, 20.36 0.11 M0 0 C7.68 0.04, 15.36 0.08, 20.36 0.11" stroke="#1864ab" stroke-width="1" fill="none"></path></g><g transform="translate(690.1513570149739 505.6689954597939) rotate(0 10.179443359375 0.05546690362081108)"><path d="M10.77 3.54 C13.57 2.54, 16.37 1.54, 20.36 0.11 M10.77 3.54 C14.39 2.25, 18.01 0.95, 20.36 0.11" stroke="#1864ab" stroke-width="1" fill="none"></path></g><g transform="translate(690.1513570149739 505.6689954597939) rotate(0 10.179443359375 0.05546690362081108)"><path d="M10.81 -3.42 C13.6 -2.39, 16.39 -1.36, 20.36 0.11 M10.81 -3.42 C14.41 -2.09, 18.02 -0.76, 20.36 0.11" stroke="#1864ab" stroke-width="1" fill="none"></path></g></g><g stroke-linecap="round"><g transform="translate(845.0292151279584 504.33973889411493) rotate(178.70307616762219 9.62095170146722 0.20913103307634628)"><path d="M0 0 C4.44 0.1, 8.88 0.19, 19.24 0.42" stroke="#1864ab" stroke-width="1.5" fill="none" stroke-dasharray="8 9"></path></g><g transform="translate(845.0292151279584 504.33973889411493) rotate(178.70307616762219 9.62095170146722 0.20913103307634628)"><path d="M10.13 3.51 C12.23 2.8, 14.33 2.08, 19.24 0.42" stroke="#1864ab" stroke-width="1.5" fill="none"></path></g><g transform="translate(845.0292151279584 504.33973889411493) rotate(178.70307616762219 9.62095170146722 0.20913103307634628)"><path d="M10.27 -3.07 C12.34 -2.26, 14.41 -1.46, 19.24 0.42" stroke="#1864ab" stroke-width="1.5" fill="none"></path></g></g><g stroke-linecap="round" transform="translate(1332.9640401204426 413.2478922040166) rotate(0 9.171112060546875 9.011390225996479)"><path d="M0.39 5.64 C0.39 5.64, 0.39 5.64, 0.39 5.64 M0.39 5.64 C0.39 5.64, 0.39 5.64, 0.39 5.64 M0.77 11.04 C3.46 8.23, 5.14 9.42, 4.97 5.02 M1.06 10.67 C2.23 8.55, 3.83 6.92, 6.17 5.11 M1.41 17.04 C2.91 12.57, 10.03 9.48, 10.77 3.03 M4.11 13.75 C6.2 10.77, 10.7 5.94, 14.36 4.34 M7.7 18.25 C4.41 12.72, 6.84 8.84, 20.35 7.32 M3.61 18.08 C10.6 13.19, 15.74 8.8, 16.48 2.42 M11.33 15.28 C12.67 17.01, 16.55 13.88, 21.63 6.68 M10.87 16.94 C13.25 14.64, 14.49 12.53, 20.49 7.88" stroke="#228be6" stroke-width="0.5" fill="none"></path><path d="M16.77 2.21 C18.66 3.98, 20.4 9.03, 20.26 10.95 C20.13 12.86, 17.54 12.69, 15.95 13.71 C14.36 14.73, 12.95 16.64, 10.72 17.05 C8.48 17.45, 4.25 16.92, 2.54 16.12 C0.83 15.33, 0.83 14.03, 0.47 12.28 C0.11 10.54, -0.42 7.21, 0.36 5.67 C1.15 4.13, 3.55 3.76, 5.16 3.04 C6.77 2.32, 7.9 -0.22, 10 1.34 C12.11 2.9, 17.73 9.99, 17.78 12.39 C17.83 14.8, 10.43 15.99, 10.31 15.76 M4.89 5.14 C6.34 3.7, 5.89 -1.57, 7.23 -2.19 C8.57 -2.81, 10.7 -0.16, 12.93 1.43 C15.15 3.01, 20.1 5.38, 20.59 7.31 C21.08 9.25, 16.69 11.07, 15.86 13.05 C15.04 15.04, 16.71 17.99, 15.65 19.2 C14.58 20.4, 11.75 21.22, 9.47 20.29 C7.18 19.35, 3.39 15.79, 1.92 13.6 C0.46 11.41, 0.24 8.97, 0.68 7.15 C1.12 5.33, 4.81 2.95, 4.55 2.69 C4.29 2.42, -0.7 5.15, -0.86 5.57" stroke="#1864ab" stroke-width="1" fill="none"></path></g><g stroke-linecap="round" transform="translate(1333.4949544270833 495.46023351261033) rotate(0 9.171112060546875 9.011390225996479)"><path d="M1.09 4.92 C1.09 4.92, 1.09 4.92, 1.09 4.92 M1.09 4.92 C1.09 4.92, 1.09 4.92, 1.09 4.92 M1.86 10.25 C5.19 10.59, 3.77 6.03, 8.01 2.67 M-0.27 11 C1.15 9.69, 2.82 9.11, 7.68 3.12 M-0.91 16.46 C7.37 13.04, 5.56 8.52, 17.82 -0.22 M1.36 16.24 C5.8 11.49, 11.8 7.84, 12.95 0.98 M1.56 16.44 C5.61 10.57, 16.37 11.47, 19.98 3.4 M5.68 18.59 C8.87 16.67, 9.1 11.45, 17.4 5.34 M9.06 21.3 C13 18.02, 17.22 11.8, 15.79 11.62 M9.98 18.55 C10.98 16.93, 13.91 15.51, 16.22 11.8" stroke="#228be6" stroke-width="0.5" fill="none"></path><path d="M7.92 2.42 C9.52 1.67, 10.55 -0.81, 12.08 -0.61 C13.61 -0.41, 16.43 1.88, 17.12 3.63 C17.81 5.38, 16.57 7.8, 16.22 9.89 C15.88 11.98, 16.24 14.83, 15.03 16.15 C13.82 17.47, 10.86 17.55, 8.99 17.83 C7.12 18.1, 5.43 18.81, 3.81 17.8 C2.2 16.8, -0.25 13.97, -0.68 11.8 C-1.12 9.62, -0.04 7.02, 1.23 4.76 C2.5 2.5, 5.68 -0.87, 6.94 -1.77 C8.2 -2.68, 8.99 -0.87, 8.77 -0.66 M1.68 1.4 C2.08 -0.38, 3.93 0.47, 6.33 0.66 C8.72 0.86, 14.51 1.58, 16.03 2.56 C17.56 3.54, 14.88 4.63, 15.48 6.53 C16.08 8.43, 19.55 11.92, 19.62 13.96 C19.7 16.01, 17.9 18.36, 15.94 18.79 C13.97 19.22, 9.96 17.48, 7.86 16.54 C5.75 15.6, 4.17 14.41, 3.3 13.15 C2.43 11.88, 3.4 10.17, 2.64 8.94 C1.88 7.71, -1.27 6.42, -1.24 5.78 C-1.22 5.13, 2.55 5.1, 2.8 5.08" stroke="#1864ab" stroke-width="1" fill="none"></path></g><g stroke-linecap="round" transform="translate(1417.8082173665364 495.9672525555791) rotate(0 9.171112060546875 9.011390225996479)"><path d="M0.13 4.09 C0.13 4.09, 0.13 4.09, 0.13 4.09 M0.13 4.09 C0.13 4.09, 0.13 4.09, 0.13 4.09 M2.26 11.3 C0.4 8.26, 4.16 5.22, 5.4 2.79 M-0.02 9.29 C1.53 8.79, 3.33 6.43, 6.43 1.61 M4.04 14.77 C4.2 8.58, 14.22 2.1, 14.4 3.22 M1.81 14.22 C6.63 11.83, 6.43 6.79, 14.71 2.25 M0.34 15.27 C9.7 17.52, 13.42 9.33, 12.81 2.17 M4.95 18.83 C5.61 13.29, 10.11 11.65, 17.45 4.54 M8.66 21.8 C12.67 15.23, 10.68 15.19, 15.97 7.15 M7.47 18.51 C11.61 16.5, 11.9 14.9, 18.4 8.95" stroke="#228be6" stroke-width="0.5" fill="none"></path><path d="M4.33 0.09 C5.56 -1.39, 9.08 -1.13, 10.72 -0.73 C12.36 -0.32, 12.91 0.86, 14.17 2.51 C15.43 4.17, 17.97 7.19, 18.28 9.2 C18.59 11.21, 17.18 12.8, 16.03 14.56 C14.87 16.31, 13.38 19.16, 11.34 19.74 C9.31 20.32, 5.61 19.27, 3.81 18.04 C2.02 16.81, 1.2 14.72, 0.59 12.38 C-0.01 10.05, -1.3 6.23, 0.19 4.03 C1.67 1.82, 7.5 -0.19, 9.5 -0.86 C11.5 -1.53, 12.54 -0.64, 12.19 -0.02 M13.47 1.73 C15.61 3.28, 20.44 5.91, 20.8 7.89 C21.17 9.87, 16.6 11.69, 15.65 13.63 C14.7 15.57, 16.24 18.41, 15.11 19.51 C13.97 20.6, 11.12 21.24, 8.85 20.18 C6.59 19.12, 2.88 15.41, 1.52 13.13 C0.16 10.86, 0.1 8.35, 0.68 6.54 C1.25 4.72, 4.24 2.96, 4.95 2.22 C5.66 1.47, 3.26 2.03, 4.93 2.08 C6.6 2.14, 13.83 2.42, 14.96 2.55 C16.1 2.68, 12.13 2.9, 11.74 2.88" stroke="#1864ab" stroke-width="1" fill="none"></path></g><g stroke-linecap="round" transform="translate(1415.9423116048176 413.5478189618291) rotate(0 9.171112060546875 9.011390225996479)"><path d="M4.82 -1.11 C4.82 -1.11, 4.82 -1.11, 4.82 -1.11 M4.82 -1.11 C4.82 -1.11, 4.82 -1.11, 4.82 -1.11 M0.49 8.19 C4.03 5.26, 3.82 4.38, 8.31 -1.57 M1.95 8.31 C3.87 5.96, 5 3.48, 10.68 -1.8 M-0.99 14.33 C8.87 8.1, 10.34 8.04, 11.3 -1.23 M3.32 15.9 C4.4 9.1, 11.26 6.6, 13.24 -0.46 M6.94 20.77 C10.54 13.02, 7.78 8.35, 15.8 4.55 M3.27 16.11 C8.15 13.94, 13.48 9.1, 15.43 2.28 M9.31 19.38 C9.12 17.05, 12.67 10.92, 15.28 9.65 M7.99 20.75 C8.35 19.3, 12.2 16.48, 17.47 9.21" stroke="#228be6" stroke-width="0.5" fill="none"></path><path d="M16.56 2.8 C17.47 4.28, 16.47 6.79, 16.34 8.9 C16.21 11.01, 16.82 13.99, 15.77 15.47 C14.71 16.94, 11.86 17.28, 10 17.77 C8.14 18.26, 6.37 19.23, 4.63 18.4 C2.89 17.56, 0.19 14.89, -0.45 12.77 C-1.09 10.64, -0.09 7.95, 0.78 5.65 C1.64 3.35, 2.95 0.03, 4.73 -1.02 C6.52 -2.06, 9.51 -2.18, 11.47 -0.61 C13.43 0.95, 16.18 5.33, 16.48 8.36 C16.77 11.39, 12.9 17.34, 13.23 17.58 M5.54 4.39 C6.51 3.15, 4.51 1.35, 6.24 1.31 C7.98 1.26, 13.74 2.85, 15.96 4.12 C18.19 5.4, 19.38 7.74, 19.57 8.94 C19.76 10.13, 18.04 10.29, 17.08 11.29 C16.12 12.3, 15.07 14.01, 13.8 14.96 C12.54 15.9, 12.01 16.74, 9.5 16.96 C6.99 17.17, 0.19 17.49, -1.23 16.25 C-2.65 15.01, 0.7 11.54, 0.98 9.51 C1.26 7.48, 0.3 5.14, 0.45 4.08 C0.59 3.01, 1.82 2.82, 1.86 3.13" stroke="#1864ab" stroke-width="1" fill="none"></path></g><g stroke-linecap="round"><g transform="translate(1342.7900962083959 486.41877303466447) rotate(0 -0.29154149768396564 -25.39082827422442)"><path d="M-0.2 -1.15 C-0.59 -13.3, -2.72 -25.56, -0.58 -50.19 M0.93 -0.41 C0.5 -14.59, -0.14 -29.36, -1.5 -50.37" stroke="#666" stroke-width="1" fill="none"></path></g><g transform="translate(1342.7900962083959 486.41877303466447) rotate(0 -0.29154149768396564 -25.39082827422442)"><path d="M8.34 -28.37 C5.85 -33.7, 1.37 -39.22, -1.56 -50.11 M9.47 -27.64 C6.25 -33.89, 2.86 -40.76, -2.48 -50.29" stroke="#666" stroke-width="1" fill="none"></path></g><g transform="translate(1342.7900962083959 486.41877303466447) rotate(0 -0.29154149768396564 -25.39082827422442)"><path d="M-8.89 -27.33 C-7.13 -33.08, -7.36 -38.85, -1.56 -50.11 M-7.76 -26.6 C-5.99 -33.19, -4.39 -40.37, -2.48 -50.29" stroke="#666" stroke-width="1" fill="none"></path></g></g><g stroke-linecap="round"><g transform="translate(1424.3921712239583 488.11105855305993) rotate(0 -0.7450054425673898 -27.48494510538876)"><path d="M0.02 -0.85 C-2.55 -21.93, -1.24 -42.29, -1.78 -54.27 M0.6 0.01 C-0.9 -17.79, -2.51 -35.15, -1.99 -54.98" stroke="#666" stroke-width="1" fill="none"></path></g><g transform="translate(1424.3921712239583 488.11105855305993) rotate(0 -0.7450054425673898 -27.48494510538876)"><path d="M7.35 -30.44 C1.7 -40.29, -0.04 -49.36, -2.21 -55.18 M7.93 -29.58 C4.17 -38.07, 0.04 -46.09, -2.42 -55.89" stroke="#666" stroke-width="1" fill="none"></path></g><g transform="translate(1424.3921712239583 488.11105855305993) rotate(0 -0.7450054425673898 -27.48494510538876)"><path d="M-11.15 -30.39 C-9.52 -40.15, -3.99 -49.24, -2.21 -55.18 M-10.57 -29.53 C-8.3 -37.96, -6.41 -45.99, -2.42 -55.89" stroke="#666" stroke-width="1" fill="none"></path></g></g><g stroke-linecap="round"><g transform="translate(1342.3815511067708 516.4148915608724) rotate(0 -0.06064234394580126 25.33056810218841)"><path d="M-1.98 -0.66 C0.27 12.26, 0.45 23.81, 1.86 51.32 M0.11 -0.17 C-0.34 12.86, 0.56 24.66, 0.56 48.5" stroke="#666" stroke-width="1" fill="none"></path></g></g><g stroke-linecap="round"><g transform="translate(1425.302998860677 515.8599599202474) rotate(0 1.5090020336210728 21.406419119797647)"><path d="M-0.06 0.26 C0.15 10.5, 1.66 23.26, 2.19 42.73 M-0.98 0.08 C0.53 11.6, 1.07 24.05, 4 42.1" stroke="#666" stroke-width="1" fill="none"></path></g></g><g transform="translate(1476.193623860677 411.4270680745444) rotate(0 24 12)"><text x="0" y="19" font-family="Cascadia, Segoe UI Emoji" font-size="20px" fill="#222" text-anchor="start" style="white-space: pre;" direction="ltr">feat</text></g><g transform="translate(1217.7119038899739 410.99606831868493) rotate(0 35 12)"><text x="0" y="19" font-family="Cascadia, Segoe UI Emoji" font-size="20px" fill="#222" text-anchor="start" style="white-space: pre;" direction="ltr">master</text></g><g stroke-linecap="round"><g transform="translate(1296.1209004720051 424.39981346652144) rotate(0 10.179443359375 0.05546690362081108)"><path d="M0 0 C5.91 0.03, 11.81 0.06, 20.36 0.11 M0 0 C4.26 0.02, 8.52 0.05, 20.36 0.11" stroke="#1864ab" stroke-width="1" fill="none"></path></g><g transform="translate(1296.1209004720051 424.39981346652144) rotate(0 10.179443359375 0.05546690362081108)"><path d="M10.77 3.54 C13.56 2.55, 16.34 1.55, 20.36 0.11 M10.77 3.54 C12.78 2.82, 14.78 2.11, 20.36 0.11" stroke="#1864ab" stroke-width="1" fill="none"></path></g><g transform="translate(1296.1209004720051 424.39981346652144) rotate(0 10.179443359375 0.05546690362081108)"><path d="M10.81 -3.42 C13.58 -2.4, 16.35 -1.37, 20.36 0.11 M10.81 -3.42 C12.81 -2.68, 14.81 -1.94, 20.36 0.11" stroke="#1864ab" stroke-width="1" fill="none"></path></g></g><g stroke-linecap="round"><g transform="translate(1450.9987585849897 423.07055690084246) rotate(178.70307616762219 9.62095170146722 0.20913103307634628)"><path d="M0 0 C7.57 0.16, 15.14 0.33, 19.24 0.42 M0 0 C3.94 0.09, 7.88 0.17, 19.24 0.42" stroke="#1864ab" stroke-width="1" fill="none"></path></g><g transform="translate(1450.9987585849897 423.07055690084246) rotate(178.70307616762219 9.62095170146722 0.20913103307634628)"><path d="M10.13 3.51 C13.72 2.29, 17.3 1.08, 19.24 0.42 M10.13 3.51 C12 2.88, 13.86 2.24, 19.24 0.42" stroke="#1864ab" stroke-width="1" fill="none"></path></g><g transform="translate(1450.9987585849897 423.07055690084246) rotate(178.70307616762219 9.62095170146722 0.20913103307634628)"><path d="M10.27 -3.07 C13.8 -1.7, 17.33 -0.32, 19.24 0.42 M10.27 -3.07 C12.11 -2.35, 13.95 -1.64, 19.24 0.42" stroke="#1864ab" stroke-width="1" fill="none"></path></g></g><g transform="translate(1261.8650716145833 301.7475407918296) rotate(0 131.5 13.5)"><text x="0" y="21" font-family="Cascadia, Segoe UI Emoji" font-size="20px" fill="#1864ab" text-anchor="start" style="white-space: pre;" direction="ltr">初始状态，记下当前 commit</text></g><g transform="translate(1230.04162591168 303.4237551115783) rotate(0 3.054935519423111 12.728897997596277)"><text x="0" y="18.457795995192505" font-family="Virgil, Segoe UI Emoji" font-size="20.366236796154006px" fill="#1864ab" text-anchor="start" style="white-space: pre;" direction="ltr">1</text></g><g stroke-linecap="round" transform="translate(1217.7635701497395 299.9643533856572) rotate(0 15.010869943058879 14.578262524400657)"><path d="M5.44 4.32 C7.51 1.69, 8.96 -0.33, 12.02 -0.3 C15.08 -0.26, 20.7 2.92, 23.79 4.53 C26.89 6.14, 29.66 6.5, 30.61 9.36 C31.56 12.23, 30.74 18.49, 29.5 21.73 C28.25 24.97, 25.92 27.68, 23.14 28.79 C20.35 29.9, 16.34 29.28, 12.78 28.39 C9.23 27.5, 4.17 25.67, 1.81 23.46 C-0.56 21.25, -1.93 18.82, -1.41 15.14 C-0.88 11.45, 3.35 3.33, 4.95 1.36 C6.56 -0.62, 7.84 3.03, 8.21 3.3 M19.08 4.09 C21.72 4.77, 24.71 3.35, 26.72 6.19 C28.73 9.03, 31.57 17.87, 31.13 21.11 C30.7 24.35, 27.46 24.31, 24.13 25.63 C20.8 26.95, 14.3 29.53, 11.15 29.02 C8 28.51, 6.73 24.45, 5.22 22.57 C3.71 20.68, 2.38 20.66, 2.11 17.7 C1.84 14.74, 1.97 7.61, 3.61 4.79 C5.25 1.97, 9.26 1.44, 11.94 0.77 C14.61 0.11, 17.71 0.64, 19.67 0.8 C21.64 0.96, 23.57 1.04, 23.72 1.73" stroke="#1864ab" stroke-width="1" fill="none"></path></g><g stroke-linecap="round" transform="translate(1782.7197774251301 410.22955113956345) rotate(0 9.171112060546875 9.011390225996479)"><path d="M0.59 4.49 C0.59 4.49, 0.59 4.49, 0.59 4.49 M0.59 4.49 C0.59 4.49, 0.59 4.49, 0.59 4.49 M1.95 8.53 C2.41 8.72, 5.43 5.28, 7.65 -1.48 M1.56 10.5 C3.83 5.96, 6.68 5.52, 9.88 -0.68 M-0.6 14.42 C0.82 10.51, 8.59 4.82, 10.05 -1.21 M1.91 16.03 C3.23 13.13, 4.19 11.46, 15.22 -0.23 M5.14 21.82 C7.22 14.93, 12.81 10.78, 17.16 1.06 M3.79 18.21 C8.57 16.72, 8.57 12.31, 17.75 3.82 M11.17 22.44 C7.43 19.43, 15.75 11.14, 23.2 6.17 M7.74 20.78 C12.03 15.1, 12.55 14.61, 21.48 5.39" stroke="#228be6" stroke-width="0.5" fill="none"></path><path d="M12.71 0.43 C14.59 1.06, 18.28 3.78, 19.02 5.47 C19.76 7.16, 18.22 8.67, 17.16 10.57 C16.09 12.46, 14.38 15.54, 12.62 16.84 C10.87 18.14, 8.73 18.46, 6.64 18.37 C4.55 18.29, 1.03 18.01, 0.1 16.32 C-0.83 14.64, 1.01 10.21, 1.09 8.24 C1.17 6.27, -0.72 5.85, 0.58 4.5 C1.88 3.14, 6.45 0.1, 8.91 0.1 C11.36 0.11, 13.7 3.83, 15.33 4.51 C16.96 5.19, 18.68 4.21, 18.69 4.2 M13.71 2.38 C15.7 3.09, 15.79 2.82, 16.41 4.41 C17.03 6.01, 17.79 10.26, 17.44 11.93 C17.09 13.6, 15.43 13.58, 14.31 14.43 C13.19 15.28, 12.19 17.28, 10.74 17.02 C9.29 16.76, 7.51 14.22, 5.59 12.85 C3.67 11.48, 0.17 10.57, -0.77 8.81 C-1.7 7.05, -1.34 3.88, -0.01 2.31 C1.31 0.73, 4.98 -0.69, 7.18 -0.63 C9.38 -0.57, 12.11 2.24, 13.16 2.65 C14.21 3.07, 13.11 1.64, 13.48 1.86" stroke="#1864ab" stroke-width="1" fill="none"></path></g><g stroke-linecap="round" transform="translate(1783.2506917317708 492.4418924481572) rotate(0 9.171112060546875 9.011390225996479)"><path d="M2.24 4.6 C2.24 4.6, 2.24 4.6, 2.24 4.6 M2.24 4.6 C2.24 4.6, 2.24 4.6, 2.24 4.6 M-0.96 14.59 C3.2 9.87, 3.75 5.03, 7.14 3.17 M0 12.35 C3.48 11.05, 5.87 5.8, 7.84 3.49 M0.1 13.58 C6.41 9.47, 5.82 6.58, 12.17 2.34 M3.55 14.81 C4.97 12.55, 11.11 6.39, 15.67 1.26 M5.67 18.57 C10.26 15.18, 12.94 7.79, 15.38 7.35 M8.38 19.2 C10.23 13.02, 16.18 7.71, 17.42 4.31 M6.38 22.86 C12.5 16.5, 15.53 15.95, 17.09 10.63 M9.77 19.93 C11.01 18.58, 16.69 12.78, 18.29 9.33" stroke="#228be6" stroke-width="0.5" fill="none"></path><path d="M13.36 -0.2 C15.29 0.16, 15.87 0.88, 16.53 2.64 C17.19 4.41, 17.67 8.09, 17.33 10.38 C16.98 12.67, 16.13 14.83, 14.47 16.39 C12.81 17.95, 9.07 19.9, 7.39 19.75 C5.72 19.6, 5.93 16.74, 4.43 15.48 C2.93 14.21, -1.22 13.96, -1.59 12.15 C-1.95 10.34, 1.13 6.31, 2.24 4.6 C3.34 2.88, 2.51 2.3, 5.06 1.84 C7.6 1.38, 15.37 0.69, 17.53 1.84 C19.68 2.99, 18.16 8.67, 17.98 8.77 M4.93 0.03 C6.37 -0.87, 9.55 0.9, 11.52 1.32 C13.48 1.74, 15.24 1.21, 16.72 2.56 C18.19 3.92, 20.15 7.69, 20.35 9.45 C20.55 11.21, 19.88 11.89, 17.9 13.12 C15.93 14.34, 11.16 16.6, 8.49 16.79 C5.82 16.98, 3.14 15.45, 1.86 14.27 C0.57 13.09, 0.85 11, 0.79 9.71 C0.73 8.43, 0.53 7.9, 1.5 6.54 C2.48 5.18, 5.4 2.11, 6.63 1.55 C7.87 0.99, 8.66 2.82, 8.92 3.18" stroke="#1864ab" stroke-width="1" fill="none"></path></g><g stroke-linecap="round" transform="translate(1867.5639546712239 492.94891149112595) rotate(0 9.171112060546875 9.011390225996479)"><path d="M4.81 -1.12 C4.81 -1.12, 4.81 -1.12, 4.81 -1.12 M4.81 -1.12 C4.81 -1.12, 4.81 -1.12, 4.81 -1.12 M4.16 5.9 C4.09 3.18, 6.23 2.09, 9.92 -0.11 M4.37 6.77 C6.2 3.07, 8 0.89, 8.59 -0.27 M1.58 12.21 C1.46 9.37, 4.3 9.2, 11.75 3.89 M0.04 15.65 C5.93 9.79, 7.99 7.4, 12.04 2.2 M5.88 17.54 C9.76 9.29, 10.81 9.93, 17.83 3.47 M4.59 16.71 C8.91 12.7, 10.24 9.52, 14.58 5.87 M9.72 17.32 C13.59 15.49, 13.21 12.62, 17.32 9.69 M7.28 20.17 C11.92 15.49, 13.47 12.32, 16.35 10.08" stroke="#228be6" stroke-width="0.5" fill="none"></path><path d="M4.58 -0.85 C5.87 -1.67, 8.57 -0.69, 10.46 0.15 C12.35 1, 14.9 2.36, 15.9 4.22 C16.9 6.09, 16.29 9.58, 16.45 11.33 C16.61 13.09, 18.21 13.39, 16.88 14.75 C15.54 16.1, 10.38 19.16, 8.42 19.45 C6.47 19.75, 6.62 17.62, 5.13 16.51 C3.64 15.4, 0.01 14.92, -0.52 12.8 C-1.06 10.68, 0.64 5.77, 1.92 3.78 C3.21 1.78, 5.78 1.68, 7.21 0.82 C8.64 -0.04, 10.57 -1.5, 10.5 -1.36 M13.28 2.13 C15.04 2.78, 16.44 2.77, 17.53 4.29 C18.63 5.82, 20.04 9.64, 19.84 11.29 C19.64 12.94, 18.52 13.32, 16.31 14.21 C14.09 15.09, 9.19 16.83, 6.56 16.62 C3.92 16.4, 1.48 14.38, 0.49 12.91 C-0.5 11.45, 0.27 9.13, 0.62 7.81 C0.98 6.49, 1.31 6.11, 2.62 4.98 C3.93 3.85, 6.13 1.27, 8.51 1.06 C10.89 0.85, 15.67 3.28, 16.88 3.72 C18.1 4.16, 16.33 4.09, 15.77 3.69" stroke="#1864ab" stroke-width="1" fill="none"></path></g><g stroke-linecap="round" transform="translate(1865.6980489095051 410.52947789737595) rotate(0 9.171112060546875 9.011390225996479)"><path d="M5.09 0.45 C5.09 0.45, 5.09 0.45, 5.09 0.45 M5.09 0.45 C5.09 0.45, 5.09 0.45, 5.09 0.45 M0.34 8.06 C4.24 5.63, 8.94 3.27, 12.33 0.8 M2.57 8.86 C3.83 6.98, 4.81 5.25, 9.45 -0.38 M0.22 12.64 C3.01 12.52, 7.65 10.61, 12.96 2.45 M4.36 13.43 C6.61 10.97, 8.69 8.13, 15.19 2.22 M5.22 16.37 C5.52 17.76, 13.69 10.01, 15.15 9.8 M5.71 18.69 C8.1 14.41, 11.8 11.06, 16.43 5.28 M12.82 18.16 C12.36 15.4, 17.29 11.62, 19.16 10.66 M11.67 17.63 C12.49 15.37, 14.26 14.43, 19.26 10.52" stroke="#228be6" stroke-width="0.5" fill="none"></path><path d="M5.09 0.46 C6.77 0.1, 9.9 0.11, 11.58 1.06 C13.27 2.02, 13.93 4.69, 15.21 6.19 C16.5 7.68, 19.6 8.16, 19.3 10.02 C18.99 11.88, 14.87 16.02, 13.37 17.36 C11.86 18.69, 12.11 18.06, 10.28 18.03 C8.46 18.01, 3.93 18.72, 2.43 17.22 C0.93 15.72, 1.52 11.03, 1.3 9.03 C1.07 7.03, -0.8 6.9, 1.07 5.2 C2.93 3.49, 10.08 -1.04, 12.49 -1.21 C14.91 -1.38, 15.53 3.88, 15.53 4.18 M7.12 -1.66 C9.39 -2.42, 13.53 -0.64, 15.76 0.15 C17.98 0.95, 20.26 1.33, 20.47 3.1 C20.68 4.86, 18.36 8.75, 17.01 10.74 C15.65 12.72, 13.79 13.98, 12.34 15.01 C10.9 16.04, 9.96 16.6, 8.33 16.91 C6.71 17.21, 3.85 17.95, 2.58 16.82 C1.31 15.68, 0.33 11.95, 0.73 10.1 C1.14 8.25, 3.57 7.02, 5.01 5.74 C6.46 4.45, 8.96 3.41, 9.38 2.39 C9.8 1.38, 7.36 -0.6, 7.54 -0.36" stroke="#1864ab" stroke-width="1" fill="none"></path></g><g stroke-linecap="round"><g transform="translate(1792.5458335130834 483.40043197021134) rotate(0 -0.8261195791975524 -24.99311371523561)"><path d="M-0.53 -1.78 C-1.31 -12.93, -1.22 -25.11, -2.39 -48.72 M0.74 0.53 C-0.05 -18.31, 0.39 -35.16, -1.32 -50.51" stroke="#666" stroke-width="1" fill="none"></path></g><g transform="translate(1792.5458335130834 483.40043197021134) rotate(0 -0.8261195791975524 -24.99311371523561)"><path d="M8.49 -29.29 C5.37 -33.5, 2.97 -38.7, -3.19 -48.78 M9.77 -26.98 C5.42 -36.19, 2.39 -43.32, -2.12 -50.58" stroke="#666" stroke-width="1" fill="none"></path></g><g transform="translate(1792.5458335130834 483.40043197021134) rotate(0 -0.8261195791975524 -24.99311371523561)"><path d="M-8.72 -28.02 C-7.47 -32.49, -5.5 -38.02, -3.19 -48.78 M-7.44 -25.71 C-5.69 -35.22, -2.63 -42.8, -2.12 -50.58" stroke="#666" stroke-width="1" fill="none"></path></g></g><g stroke-linecap="round"><g transform="translate(1874.1479085286458 485.0927174886068) rotate(0 -0.7652181314782638 -27.33831188455224)"><path d="M-0.89 -0.11 C-0.94 -13.78, -2.56 -26.88, -0.48 -54.57 M0 -0.44 C-0.1 -10.92, -1.87 -23.07, -1.24 -53.66" stroke="#666" stroke-width="1" fill="none"></path></g><g transform="translate(1874.1479085286458 485.0927174886068) rotate(0 -0.7652181314782638 -27.33831188455224)"><path d="M7.09 -28.34 C4.94 -34.5, 1.3 -40.04, -0.16 -54.16 M7.98 -28.68 C6.46 -33.02, 3.06 -39.07, -0.92 -53.25" stroke="#666" stroke-width="1" fill="none"></path></g><g transform="translate(1874.1479085286458 485.0927174886068) rotate(0 -0.7652181314782638 -27.33831188455224)"><path d="M-11.41 -28.36 C-8.67 -34.35, -7.42 -39.88, -0.16 -54.16 M-10.52 -28.7 C-8.1 -33.14, -7.56 -39.18, -0.92 -53.25" stroke="#666" stroke-width="1" fill="none"></path></g></g><g stroke-linecap="round"><g transform="translate(1792.1372884114583 513.3965504964193) rotate(0 -0.07398637612254788 25.734165211208165)"><path d="M-0.67 0.54 C-1.81 12.16, 1.43 20.37, -0.4 50.93 M0.63 0.57 C-0.32 17.38, 1.27 35.3, 0.57 49.08" stroke="#666" stroke-width="1" fill="none"></path></g></g><g stroke-linecap="round"><g transform="translate(1875.0587361653645 512.8416188557943) rotate(0 1.1000515427440405 21.009290516376495)"><path d="M-1.87 1.73 C1.83 11.73, -0.1 25.95, 4.07 41.55 M-0.8 -0.07 C1.35 11.01, 1.03 20.84, 3.32 42.08" stroke="#666" stroke-width="1" fill="none"></path></g></g><g transform="translate(1668.8549702962239 419.74463399251306) rotate(0 35 12)"><text x="0" y="19" font-family="Cascadia, Segoe UI Emoji" font-size="20px" fill="#222" text-anchor="start" style="white-space: pre;" direction="ltr">master</text></g><g stroke-linecap="round"><g transform="translate(1744.8104911422888 433.30555459975415) rotate(0 12.51604450860816 -0.855518287018981)"><path d="M0 0 C9.67 -0.66, 19.35 -1.32, 25.03 -1.71 M0 0 C7.34 -0.5, 14.69 -1, 25.03 -1.71" stroke="#1864ab" stroke-width="1" fill="none"></path></g><g transform="translate(1744.8104911422888 433.30555459975415) rotate(0 12.51604450860816 -0.855518287018981)"><path d="M13.56 3.37 C18 1.41, 22.43 -0.56, 25.03 -1.71 M13.56 3.37 C16.93 1.88, 20.29 0.39, 25.03 -1.71" stroke="#1864ab" stroke-width="1" fill="none"></path></g><g transform="translate(1744.8104911422888 433.30555459975415) rotate(0 12.51604450860816 -0.855518287018981)"><path d="M12.98 -5.19 C17.64 -3.84, 22.3 -2.5, 25.03 -1.71 M12.98 -5.19 C16.51 -4.17, 20.05 -3.15, 25.03 -1.71" stroke="#1864ab" stroke-width="1" fill="none"></path></g></g><g transform="translate(1716.7760823567708 297.46809132893895) rotate(0 80.5 14)"><text x="0" y="21" font-family="Virgil, Segoe UI Emoji" font-size="20px" fill="#1864ab" text-anchor="start" style="white-space: pre;" direction="ltr">切自己的分支指向</text></g><g transform="translate(1681.73645013043 298.4591249846252) rotate(0 7.5 12.5)"><text x="0" y="18" font-family="Virgil, Segoe UI Emoji" font-size="20.366236796154006px" fill="#1864ab" text-anchor="start" style="white-space: pre;" direction="ltr">2</text></g><g stroke-linecap="round" transform="translate(1672.674580891927 295.6849039227666) rotate(0 15.010869943058879 14.578262524400657)"><path d="M5.05 2.87 C6.94 0.61, 9.5 0.84, 12.74 0.67 C15.99 0.5, 21.8 0.28, 24.52 1.86 C27.24 3.44, 28.28 7.08, 29.07 10.15 C29.86 13.23, 30.71 17.16, 29.26 20.32 C27.81 23.48, 23.45 27.41, 20.35 29.11 C17.26 30.81, 13.91 31.62, 10.69 30.53 C7.47 29.44, 2.96 25.58, 1.05 22.57 C-0.87 19.57, -3.39 16.16, -0.78 12.51 C1.83 8.86, 11.92 1.2, 16.71 0.68 C21.51 0.17, 27.61 9.17, 27.97 9.43 M21.64 2.96 C24.12 3.19, 25.99 3.45, 27.83 6.2 C29.67 8.94, 32.73 16.66, 32.69 19.44 C32.65 22.21, 30.76 21.43, 27.57 22.86 C24.39 24.29, 16.82 27.32, 13.6 28.01 C10.38 28.7, 10.02 28.56, 8.26 27.01 C6.5 25.45, 4.59 21.65, 3.04 18.68 C1.5 15.72, -1.7 12.4, -1.02 9.21 C-0.34 6.03, 3.53 0.66, 7.14 -0.42 C10.75 -1.51, 18.19 2.39, 20.64 2.7 C23.09 3, 22.54 1.75, 21.85 1.41" stroke="#1864ab" stroke-width="1" fill="none"></path></g><g transform="translate(1690.5738118489583 399.928426106771) rotate(0 24 12)"><text x="0" y="19" font-family="Cascadia, Segoe UI Emoji" font-size="20px" fill="#222" text-anchor="start" style="white-space: pre;" direction="ltr">feat</text></g><g stroke-linecap="round"><g transform="translate(1743.2524922688801 414.53196931867274) rotate(0 12.363065917405947 -0.16833686674800674)"><path d="M0 0 C5.44 -0.07, 10.88 -0.15, 24.73 -0.34 M0 0 C8.1 -0.11, 16.19 -0.22, 24.73 -0.34" stroke="#1864ab" stroke-width="1" fill="none"></path></g><g transform="translate(1743.2524922688801 414.53196931867274) rotate(0 12.363065917405947 -0.16833686674800674)"><path d="M13.17 4.05 C15.71 3.09, 18.25 2.12, 24.73 -0.34 M13.17 4.05 C16.95 2.61, 20.74 1.18, 24.73 -0.34" stroke="#1864ab" stroke-width="1" fill="none"></path></g><g transform="translate(1743.2524922688801 414.53196931867274) rotate(0 12.363065917405947 -0.16833686674800674)"><path d="M13.05 -4.41 C15.62 -3.51, 18.19 -2.62, 24.73 -0.34 M13.05 -4.41 C16.87 -3.07, 20.7 -1.74, 24.73 -0.34" stroke="#1864ab" stroke-width="1" fill="none"></path></g></g><g transform="translate(1678.3084004720051 335.24062856038415) rotate(0 150.5 19)"><text x="0" y="16" font-family="Cascadia, Segoe UI Emoji" font-size="16px" fill="#333" text-anchor="start" style="white-space: pre;" direction="ltr">$ git fetch origin master</text><text x="0" y="35" font-family="Cascadia, Segoe UI Emoji" font-size="16px" fill="#333" text-anchor="start" style="white-space: pre;" direction="ltr">$ git reset --hard origin/master</text></g><g stroke-linecap="round" transform="translate(1339.3446553548176 810.3690775067511) rotate(0 9.171112060546875 9.011390225996479)"><path d="M6.93 -1.93 C6.93 -1.93, 6.93 -1.93, 6.93 -1.93 M6.93 -1.93 C6.93 -1.93, 6.93 -1.93, 6.93 -1.93 M3.48 9.01 C2.88 6.87, 11.4 4.34, 13.25 -2.92 M1.34 11.73 C4.88 7.89, 7.85 2.36, 12.43 0.02 M3.86 16.27 C5.56 8.58, 9.76 3.14, 17.7 3.85 M2.15 15.65 C8.28 9.31, 13.3 3.98, 15.77 1.44 M5.35 16.08 C8.22 11.42, 9.79 9.06, 13.69 6.66 M6.22 18.44 C7.33 15.15, 10.83 12.1, 17.66 5.59 M10.2 16.75 C13.26 15.83, 18.06 11.03, 18.1 10.77 M9.9 17.86 C13 13.7, 15.52 12.26, 18.06 8.16" stroke="#228be6" stroke-width="0.5" fill="none"></path><path d="M6.95 -1.94 C8.96 -2.57, 12.89 -1.52, 14.44 0.01 C15.98 1.55, 15.55 4.86, 16.22 7.26 C16.89 9.67, 19.27 12.56, 18.46 14.44 C17.64 16.33, 13.4 18.1, 11.34 18.55 C9.28 19, 7.46 17.87, 6.09 17.13 C4.71 16.39, 4.16 15.5, 3.11 14.13 C2.05 12.75, -0.12 10.53, -0.27 8.86 C-0.41 7.19, 0.92 5.3, 2.25 4.11 C3.58 2.92, 6.03 2.24, 7.73 1.69 C9.42 1.15, 12.38 1.24, 12.42 0.84 M3.82 0.71 C5.64 0.12, 12.81 0.53, 15.18 0.7 C17.55 0.88, 17.28 -0.31, 18.01 1.77 C18.74 3.86, 20.2 10.81, 19.55 13.2 C18.91 15.58, 15.94 14.88, 14.14 16.07 C12.34 17.27, 10.18 20.76, 8.73 20.36 C7.29 19.97, 6.64 15.18, 5.48 13.71 C4.31 12.24, 2.3 13.11, 1.73 11.54 C1.17 9.97, 1.21 6.24, 2.11 4.28 C3 2.33, 6.03 0.56, 7.1 -0.17 C8.17 -0.91, 8.67 -0.73, 8.53 -0.12" stroke="#1864ab" stroke-width="1" fill="none"></path></g><g stroke-linecap="round" transform="translate(1338.5813802083333 892.5814188153448) rotate(0 9.171112060546875 9.011390225996479)"><path d="M7.79 -1.18 C7.79 -1.18, 7.79 -1.18, 7.79 -1.18 M7.79 -1.18 C7.79 -1.18, 7.79 -1.18, 7.79 -1.18 M2.83 10.38 C6.04 5.15, 11.33 5.11, 10.17 3.46 M3.6 10.19 C6.51 6.26, 8.68 2.27, 10.92 1.24 M7.21 13.76 C8.7 12.74, 11.62 11.26, 15.27 4.72 M4.78 13.8 C9.49 11.8, 11.06 5.9, 14.68 2.83 M7.84 17.78 C9.45 14.37, 10.53 9.27, 17.53 7.68 M7.61 15.24 C10.42 12.62, 14.12 9.81, 16.24 7.18 M11.61 17.44 C16.18 16.14, 18.38 13.64, 17.59 10.32 M11.53 19.97 C13.77 17.27, 16.93 14.69, 19.37 8.04" stroke="#228be6" stroke-width="0.5" fill="none"></path><path d="M11.48 1.99 C13.01 3.06, 15.79 5.45, 17.14 6.95 C18.48 8.45, 20.19 9.17, 19.54 10.98 C18.9 12.79, 14.92 16.81, 13.24 17.81 C11.56 18.82, 10.96 17.61, 9.46 16.99 C7.95 16.37, 5.47 15.55, 4.21 14.09 C2.95 12.63, 2.11 9.81, 1.88 8.25 C1.65 6.7, 1.87 6.31, 2.83 4.77 C3.79 3.22, 5.3 -0.51, 7.63 -1 C9.97 -1.5, 15.46 1.03, 16.84 1.8 C18.22 2.57, 16.53 3.14, 15.89 3.6 M5.81 1.94 C7.57 0.21, 8.38 -1.43, 10.07 -0.82 C11.75 -0.21, 14.21 3.97, 15.93 5.6 C17.65 7.23, 20.41 7.87, 20.39 8.94 C20.37 10.01, 17.51 10.63, 15.82 12 C14.12 13.38, 12.09 16.33, 10.2 17.18 C8.32 18.02, 6.34 17.5, 4.51 17.07 C2.69 16.63, -0.12 16.4, -0.75 14.58 C-1.37 12.76, -0.02 8.56, 0.77 6.12 C1.56 3.68, 3.12 0.98, 4 -0.05 C4.87 -1.08, 6.17 -0.52, 6.02 -0.07" stroke="#1864ab" stroke-width="1" fill="none"></path></g><g stroke-linecap="round" transform="translate(1422.8946431477864 893.0884378583136) rotate(0 9.171112060546875 9.011390225996479)"><path d="M6.59 -0.9 C6.59 -0.9, 6.59 -0.9, 6.59 -0.9 M6.59 -0.9 C6.59 -0.9, 6.59 -0.9, 6.59 -0.9 M4.11 5.94 C5.62 6.1, 6.82 2.33, 11.53 -0.01 M5.15 6.95 C6.78 5.54, 8.03 2.9, 11.23 -0.09 M5.77 15.63 C9.45 13.7, 13.28 4.62, 11.71 -1.91 M3.22 16.1 C7.57 11.89, 7.02 9.19, 16.91 2.03 M8.75 18.4 C7.65 13.06, 13.85 8.72, 16.89 6.9 M5.49 16.78 C8.4 16.54, 9.56 11, 16.08 5.59 M6.06 23.88 C8.63 15.99, 13.11 17.13, 16.61 8.49 M8.53 21.61 C9.38 18.23, 12.82 16, 17.38 11.4" stroke="#228be6" stroke-width="0.5" fill="none"></path><path d="M3.7 4.12 C4.94 2.69, 4.48 -0.1, 6.38 -0.65 C8.27 -1.2, 13.35 -0.2, 15.09 0.83 C16.83 1.85, 16.21 3.39, 16.82 5.48 C17.42 7.57, 19.2 11.32, 18.72 13.36 C18.24 15.41, 15.98 16.7, 13.94 17.76 C11.9 18.81, 8.26 20.3, 6.47 19.69 C4.69 19.07, 4.05 15.5, 3.22 14.07 C2.39 12.64, 1.84 12.75, 1.5 11.12 C1.16 9.49, 1.02 5.62, 1.18 4.27 C1.34 2.92, 2.2 3.35, 2.45 3.03 M18.95 6.22 C19.61 7.64, 17.78 7.06, 17.33 8.69 C16.87 10.32, 17.33 14.56, 16.22 16.01 C15.12 17.45, 12.98 17.63, 10.71 17.38 C8.44 17.13, 4.22 15.47, 2.58 14.5 C0.94 13.53, 1.61 13.25, 0.87 11.53 C0.14 9.81, -2.92 5.44, -1.81 4.18 C-0.71 2.92, 5.55 4.29, 7.49 3.96 C9.43 3.63, 8.27 1.81, 9.83 2.18 C11.39 2.56, 15.56 5.76, 16.86 6.21 C18.16 6.66, 17.74 4.94, 17.63 4.89" stroke="#1864ab" stroke-width="1" fill="none"></path></g><g stroke-linecap="round" transform="translate(1421.0287373860676 810.6690042645636) rotate(0 9.171112060546875 9.011390225996479)"><path d="M1.37 1.19 C1.37 1.19, 1.37 1.19, 1.37 1.19 M1.37 1.19 C1.37 1.19, 1.37 1.19, 1.37 1.19 M3.06 7.38 C2.38 4.69, 5.97 4.86, 6.4 1.17 M1.75 7.13 C2.25 5.08, 4.35 4.23, 5.73 1.52 M0.06 13.43 C4.59 8.76, 10.46 3.57, 12.74 0.45 M0.85 12.36 C3.14 10.83, 6.37 8.77, 10.63 1.34 M2.44 18.98 C6.81 10.65, 7.59 10.66, 16.51 4.53 M2.33 18.15 C5.88 14.71, 10.47 12.11, 15.7 3.94 M6.63 19.42 C13.83 13.12, 17.97 7, 14.7 7.05 M5.34 20.08 C10.97 16.4, 13.98 12.35, 18.83 7.62 M10.83 18.35 C13.94 18.36, 15.98 10.49, 20.41 8.58 M12.51 18.98 C13.39 17.54, 14.4 15.54, 19.13 8.85" stroke="#228be6" stroke-width="0.5" fill="none"></path><path d="M1.2 1.39 C2.74 0.39, 8.32 1.58, 10.43 1.86 C12.55 2.14, 12.56 1.91, 13.91 3.06 C15.25 4.22, 17.74 6.98, 18.5 8.79 C19.26 10.61, 19.33 12.33, 18.48 13.96 C17.63 15.6, 15.63 17.92, 13.4 18.61 C11.16 19.29, 7.02 19.03, 5.08 18.08 C3.15 17.13, 2.31 14.29, 1.78 12.89 C1.25 11.49, 1.61 11.81, 1.9 9.67 C2.19 7.54, 2.63 1.88, 3.53 0.1 C4.42 -1.69, 7.29 -1.22, 7.27 -1.04 M15.17 3.67 C16.17 4.29, 15.89 4.19, 16.18 6.25 C16.47 8.31, 17.99 14.25, 16.91 16.03 C15.83 17.81, 11.43 17.08, 9.73 16.94 C8.02 16.79, 8.7 16.06, 6.68 15.13 C4.66 14.21, -0.97 12.5, -2.41 11.38 C-3.85 10.26, -2.67 10.38, -1.98 8.44 C-1.28 6.5, -0.59 1.2, 1.74 -0.25 C4.07 -1.71, 10 -0.73, 12.02 -0.28 C14.04 0.18, 13.12 2.17, 13.86 2.46 C14.59 2.75, 15.73 1.28, 16.45 1.47" stroke="#1864ab" stroke-width="1" fill="none"></path></g><g stroke-linecap="round"><g transform="translate(1349.1707114427709 883.5399583373986) rotate(0 -0.8315477760598924 -25.09115436397167)"><path d="M-1 0.5 C-1.16 -12.87, 0.17 -23.42, -2.34 -49.9 M0.68 -0.34 C-0.87 -16.9, -0.78 -35.42, -0.19 -50.68" stroke="#666" stroke-width="1" fill="none"></path></g><g transform="translate(1349.1707114427709 883.5399583373986) rotate(0 -0.8315477760598924 -25.09115436397167)"><path d="M6.84 -26.27 C4.84 -33.91, 4.55 -38.74, -2.01 -50.13 M8.52 -27.1 C4.56 -34.45, 2.03 -43.7, 0.15 -50.91" stroke="#666" stroke-width="1" fill="none"></path></g><g transform="translate(1349.1707114427709 883.5399583373986) rotate(0 -0.8315477760598924 -25.09115436397167)"><path d="M-10.41 -26.7 C-8.69 -34.24, -5.26 -38.97, -2.01 -50.13 M-8.73 -27.54 C-6.66 -34.59, -3.16 -43.69, 0.15 -50.91" stroke="#666" stroke-width="1" fill="none"></path></g></g><g stroke-linecap="round"><g transform="translate(1429.4785970052083 885.2322438557943) rotate(0 -0.7376398360356688 -26.41297083441168)"><path d="M0.59 1.62 C-1.84 -13.65, -0.28 -24.16, -0.36 -53.81 M-0.92 -0.56 C0.59 -13.4, 0.46 -26.22, -2.07 -54.44" stroke="#666" stroke-width="1" fill="none"></path></g><g transform="translate(1429.4785970052083 885.2322438557943) rotate(0 -0.7376398360356688 -26.41297083441168)"><path d="M9.67 -28.18 C4.66 -36.42, 3.91 -39.82, -0.87 -54.18 M8.16 -30.37 C7.28 -36.27, 4.9 -42.19, -2.57 -54.82" stroke="#666" stroke-width="1" fill="none"></path></g><g transform="translate(1429.4785970052083 885.2322438557943) rotate(0 -0.7376398360356688 -26.41297083441168)"><path d="M-8.77 -26.78 C-9.32 -35.2, -5.61 -38.94, -0.87 -54.18 M-10.29 -28.96 C-6.83 -35.25, -4.89 -41.5, -2.57 -54.82" stroke="#666" stroke-width="1" fill="none"></path></g></g><g stroke-linecap="round"><g transform="translate(1349.7043050130208 894.2620290120443) rotate(0 0.3077750504016876 24.206610649824142)"><path d="M-1.53 -1.57 C1.47 13.1, 1.83 23.04, -0.53 48.28 M-0.58 0.81 C0.91 12.51, 0.45 27.18, 2.15 49.98" stroke="#666" stroke-width="1" fill="none"></path></g></g><g stroke-linecap="round"><g transform="translate(1430.389424641927 912.9811452229818) rotate(0 1.465644856914878 21.15489297080785)"><path d="M0.23 0.16 C0.31 12.05, 1.53 26.82, 2.7 42.23 M0.59 0.08 C0.61 9.93, 0.73 19.97, 2.21 42.08" stroke="#666" stroke-width="1" fill="none"></path></g></g><g transform="translate(1226.8132222493489 805.7841237386068) rotate(0 35 12)"><text x="0" y="19" font-family="Cascadia, Segoe UI Emoji" font-size="20px" fill="#222" text-anchor="start" style="white-space: pre;" direction="ltr">master</text></g><g stroke-linecap="round"><g transform="translate(1303.9506278610384 818.8297550392074) rotate(0 10.953971754702138 0.5119896475513315)"><path d="M0 0 C7.34 0.34, 14.69 0.69, 21.91 1.02 M0 0 C6.5 0.3, 13.01 0.61, 21.91 1.02" stroke="#1864ab" stroke-width="1" fill="none"></path></g><g transform="translate(1303.9506278610384 818.8297550392074) rotate(0 10.953971754702138 0.5119896475513315)"><path d="M11.44 4.29 C14.95 3.19, 18.46 2.1, 21.91 1.02 M11.44 4.29 C14.55 3.32, 17.65 2.35, 21.91 1.02" stroke="#1864ab" stroke-width="1" fill="none"></path></g><g transform="translate(1303.9506278610384 818.8297550392074) rotate(0 10.953971754702138 0.5119896475513315)"><path d="M11.79 -3.2 C15.18 -1.79, 18.57 -0.37, 21.91 1.02 M11.79 -3.2 C14.79 -1.95, 17.8 -0.69, 21.91 1.02" stroke="#1864ab" stroke-width="1" fill="none"></path></g></g><g transform="translate(1263.7406819661458 625.4298528035482) rotate(0 35.5 12)"><text x="0" y="19" font-family="Cascadia, Segoe UI Emoji" font-size="20px" fill="#1864ab" text-anchor="start" style="white-space: pre;" direction="ltr">merge!</text></g><g transform="translate(1228.701049739805 626.4208864592346) rotate(0 7.5 12.5)"><text x="0" y="18" font-family="Virgil, Segoe UI Emoji" font-size="20.366236796154006px" fill="#1864ab" text-anchor="start" style="white-space: pre;" direction="ltr">3</text></g><g stroke-linecap="round" transform="translate(1219.639180501302 623.6466653973761) rotate(0 15.010869943058879 14.578262524400657)"><path d="M15.74 0 C18.85 -0.01, 23.23 2.63, 25.79 4.64 C28.36 6.65, 30.91 9.28, 31.15 12.04 C31.38 14.8, 29.04 18.15, 27.21 21.2 C25.37 24.25, 23.44 29.23, 20.12 30.33 C16.8 31.44, 10.54 29.16, 7.31 27.85 C4.08 26.54, 1.66 25.12, 0.74 22.46 C-0.17 19.8, 1.12 15.27, 1.82 11.88 C2.52 8.48, 1.19 4.1, 4.93 2.1 C8.67 0.1, 20.44 -0.53, 24.25 -0.1 C28.06 0.33, 28.17 3.96, 27.8 4.68 M21.17 3.3 C23.91 5.7, 28.41 10.28, 29.29 13.01 C30.16 15.75, 27.97 17.68, 26.44 19.72 C24.9 21.75, 22.34 23.24, 20.09 25.22 C17.84 27.19, 15.85 32.39, 12.94 31.55 C10.02 30.71, 4.97 23.14, 2.59 20.19 C0.2 17.24, -1.63 16.39, -1.37 13.85 C-1.12 11.3, 1.16 7.73, 4.12 4.93 C7.08 2.13, 13.19 -2.93, 16.39 -2.95 C19.6 -2.98, 21.92 3.55, 23.33 4.79 C24.73 6.02, 24.67 4.99, 24.82 4.45" stroke="#1864ab" stroke-width="1" fill="none"></path></g><g transform="translate(1256.0879720052083 717.1442616780599) rotate(0 24 12)"><text x="0" y="19" font-family="Cascadia, Segoe UI Emoji" font-size="20px" fill="#222" text-anchor="start" style="white-space: pre;" direction="ltr">feat</text></g><g stroke-linecap="round"><g transform="translate(1310.1288350423176 729.962191396209) rotate(0 10.669259721701337 -0.11630410609313913)"><path d="M0 0 C7.74 -0.08, 15.48 -0.17, 21.34 -0.23 M0 0 C8.02 -0.09, 16.04 -0.17, 21.34 -0.23" stroke="#1864ab" stroke-width="1" fill="none"></path></g><g transform="translate(1310.1288350423176 729.962191396209) rotate(0 10.669259721701337 -0.11630410609313913)"><path d="M11.35 3.53 C14.97 2.16, 18.6 0.8, 21.34 -0.23 M11.35 3.53 C15.1 2.11, 18.86 0.7, 21.34 -0.23" stroke="#1864ab" stroke-width="1" fill="none"></path></g><g transform="translate(1310.1288350423176 729.962191396209) rotate(0 10.669259721701337 -0.11630410609313913)"><path d="M11.27 -3.77 C14.92 -2.49, 18.57 -1.2, 21.34 -0.23 M11.27 -3.77 C15.06 -2.44, 18.84 -1.11, 21.34 -0.23" stroke="#1864ab" stroke-width="1" fill="none"></path></g></g><g transform="translate(1220.8755391438801 663.5470860799153) rotate(0 108 9.5)"><text x="0" y="16" font-family="Cascadia, Segoe UI Emoji" font-size="16px" fill="#333" text-anchor="start" style="white-space: pre;" direction="ltr">$ git merge &lt;commit-id&gt;</text></g><g stroke-linecap="round" transform="translate(1338.7738545735676 721.9348428876104) rotate(0 9.171112060546875 9.011390225996479)"><path d="M2.18 1.89 C2.18 1.89, 2.18 1.89, 2.18 1.89 M2.18 1.89 C2.18 1.89, 2.18 1.89, 2.18 1.89 M0.69 9.24 C5.61 7.68, 6.51 2.96, 6.38 0.59 M0.72 9.62 C3.31 6.73, 5.04 4.23, 8.49 0.88 M-0.44 11.43 C1.92 9.39, 9.37 9.42, 10.08 2.22 M2.12 14.54 C6.8 10.06, 9.96 5.18, 12.73 4.03 M1.37 20.95 C5.76 15.1, 9.58 7.89, 20.63 6.69 M3.34 17.85 C7.31 14.52, 10.81 9.29, 15.8 1.43 M5.29 23.59 C12.89 16.39, 15.24 14.47, 19.87 10.94 M5.84 20.99 C10.59 15.68, 15.29 13.77, 16.31 8.4" stroke="#228be6" stroke-width="0.5" fill="none"></path><path d="M9.34 0.93 C11.38 1.09, 14.84 0.31, 16.13 1.66 C17.41 3.02, 16.99 6.85, 17.05 9.03 C17.12 11.22, 17.44 13.31, 16.52 14.77 C15.6 16.24, 13.58 17.16, 11.53 17.82 C9.48 18.49, 5.86 19.44, 4.23 18.76 C2.61 18.08, 2.52 15.61, 1.76 13.76 C1 11.91, -0.34 9.59, -0.31 7.66 C-0.28 5.73, -0.89 2.85, 1.93 2.18 C4.75 1.51, 14.28 1.86, 16.61 3.65 C18.94 5.43, 15.92 12.5, 15.92 12.9 M5.26 -0.77 C7.3 -0.47, 12.44 2.08, 14.48 3.18 C16.51 4.28, 17.04 4.09, 17.46 5.81 C17.87 7.54, 17.41 11.45, 16.96 13.55 C16.51 15.65, 16.36 17.56, 14.76 18.43 C13.16 19.29, 9.03 19.24, 7.36 18.74 C5.68 18.24, 5.84 17.28, 4.73 15.41 C3.62 13.54, 0.91 9.26, 0.69 7.51 C0.47 5.75, 2.42 6.42, 3.41 4.87 C4.39 3.31, 5.57 -1.03, 6.6 -1.84 C7.62 -2.66, 8.87 -0.87, 9.57 -0.03" stroke="#1864ab" stroke-width="1" fill="none"></path></g><g stroke-linecap="round"><g transform="translate(1348.003877386757 809.3817644244306) rotate(0 -0.17934254633144064 -32.58410602775956)"><path d="M1.34 0.42 C-1.46 -14.87, -2.01 -32.45, -1.55 -65 M0.98 -0.51 C-0.11 -20.28, 0.04 -41.81, -0.92 -65.59" stroke="#666" stroke-width="1" fill="none"></path></g><g transform="translate(1348.003877386757 809.3817644244306) rotate(0 -0.17934254633144064 -32.58410602775956)"><path d="M11.52 -37.3 C5.9 -43.15, 2.48 -51.18, -2.41 -65.86 M11.17 -38.23 C6.6 -46.41, 3.25 -56.27, -1.78 -66.45" stroke="#666" stroke-width="1" fill="none"></path></g><g transform="translate(1348.003877386757 809.3817644244306) rotate(0 -0.17934254633144064 -32.58410602775956)"><path d="M-8.99 -36.68 C-9.3 -42.51, -7.41 -50.7, -2.41 -65.86 M-9.34 -37.61 C-7.42 -45.82, -4.27 -55.88, -1.78 -66.45" stroke="#666" stroke-width="1" fill="none"></path></g></g><g stroke-linecap="round"><g transform="translate(1429.9540303548176 807.3109944661459) rotate(0 -34.40507514371143 -36.604212454520166)"><path d="M-0.43 1.2 C-1.09 -8.16, 1.39 -19.76, 0.09 -25.64 M-0.58 -0.07 C0.77 -5.78, -0.83 -13.7, -0.09 -28.42 M-2.11 -26.13 C-21.12 -43.84, -44.7 -57.75, -69.28 -74.28 M-1.25 -27.59 C-22.76 -42.99, -45.74 -59.25, -67.3 -74.41" stroke="#666" stroke-width="1" fill="none"></path></g><g transform="translate(1429.9540303548176 807.3109944661459) rotate(0 -34.40507514371143 -36.604212454520166)"><path d="M-38.77 -65.36 C-49.12 -67.95, -56.26 -72.97, -66.91 -72.6 M-38.93 -66.63 C-44.29 -67.81, -52.71 -71.07, -67.09 -75.39" stroke="#666" stroke-width="1" fill="none"></path></g><g transform="translate(1429.9540303548176 807.3109944661459) rotate(0 -34.40507514371143 -36.604212454520166)"><path d="M-50.59 -48.58 C-56.91 -56.88, -60.09 -67.53, -66.91 -72.6 M-50.75 -49.85 C-53.39 -54.97, -58.99 -62.22, -67.09 -75.39" stroke="#666" stroke-width="1" fill="none"></path></g></g><g transform="translate(1216.5895284016926 336.35049184163415) rotate(0 42.5 9.5)"><text x="0" y="16" font-family="Cascadia, Segoe UI Emoji" font-size="16px" fill="#333" text-anchor="start" style="white-space: pre;" direction="ltr">$ git log</text></g><g transform="translate(1718.9840901692708 625.7072575887045) rotate(0 134 13.5)"><text x="0" y="21" font-family="Cascadia, Segoe UI Emoji" font-size="20px" fill="#1864ab" text-anchor="start" style="white-space: pre;" direction="ltr">提 MR 或 push -f 更新 MR</text></g><g transform="translate(1683.94445794293 626.4208864592346) rotate(0 7 12.5)"><text x="0" y="18" font-family="Virgil, Segoe UI Emoji" font-size="20.366236796154006px" fill="#1864ab" text-anchor="start" style="white-space: pre;" direction="ltr">4</text></g><g stroke-linecap="round" transform="translate(1674.882588704427 623.6466653973761) rotate(0 15.010869943058879 14.578262524400657)"><path d="M11.21 1.71 C14.52 1.21, 20.35 1.16, 23.46 2.34 C26.56 3.52, 28.75 5.93, 29.83 8.8 C30.92 11.67, 31.14 16.38, 29.95 19.55 C28.77 22.72, 25.85 26.26, 22.74 27.8 C19.63 29.34, 14.7 29.65, 11.31 28.79 C7.91 27.92, 4.1 24.79, 2.39 22.61 C0.68 20.43, 0.51 18.66, 1.02 15.72 C1.54 12.79, 1.75 6.99, 5.46 4.98 C9.16 2.97, 19.49 2.19, 23.27 3.66 C27.04 5.13, 27.84 14, 28.12 13.8 M21.42 0.71 C24.38 1.69, 26.63 5.33, 27.63 8.06 C28.63 10.78, 27.85 14.16, 27.42 17.05 C26.99 19.94, 27.33 22.95, 25.05 25.39 C22.78 27.84, 16.85 31.47, 13.75 31.73 C10.66 31.99, 8.84 28.84, 6.48 26.97 C4.12 25.1, 0.28 23.18, -0.41 20.54 C-1.1 17.89, 1.06 13.84, 2.34 11.12 C3.61 8.41, 4.97 6.21, 7.25 4.25 C9.53 2.29, 14.53 -0.3, 16.01 -0.62 C17.5 -0.94, 16.14 1.67, 16.16 2.33" stroke="#1864ab" stroke-width="1" fill="none"></path></g><g stroke-linecap="round"><g transform="translate(569.7374776204426 312.02225647745297) rotate(0 19.306332774996235 1.9982594822290878)"><path d="M1.88 0.1 C5.81 5.21, 10.54 12.23, 16.12 18.77 M0.88 1.58 C4.56 4.32, 8.41 12.13, 16.71 16.76 M17.08 20.36 C23.66 10.19, 28.01 2.11, 37.73 -16.36 M14.7 19.42 C19.22 11.3, 24.69 5.94, 37.6 -14.85" stroke="#089f5b" stroke-width="1" fill="none"></path></g></g><g stroke-linecap="round"><g transform="translate(569.4600118001301 315.3517852860467) rotate(0 20.62737682329066 4.314436680892442)"><path d="M3.89 2.46 C0.15 1.25, 10.35 5, 12.98 16.83 M0.73 1.89 C4.89 5.19, 9.95 9.71, 16.51 19.6 M12.07 21.06 C19.7 8.35, 22.14 6.13, 36.36 -11.89 M17.62 17.93 C23.36 4.02, 34.42 -6.61, 40.52 -12.44" stroke="#089f5b" stroke-width="1" fill="none"></path></g></g><g transform="translate(113.83413696289062 339.085205078125) rotate(0 85 9.5)"><text x="0" y="16" font-family="Cascadia, Segoe UI Emoji" font-size="16px" fill="#333" text-anchor="start" style="white-space: pre;" direction="ltr">$ git merge master</text></g><g stroke-linecap="round"><g transform="translate(98.43608322962342 300.7131608627394) rotate(0 -13.781633242366837 17.454497395566136)"><path d="M3.31 3.27 C-10.06 5.66, -17.6 14.05, -30.87 33.91 M-0.86 1 C-6.07 9.65, -14.2 14.39, -28.97 32.5" stroke="#c92a2a" stroke-width="1" fill="none"></path></g></g><g stroke-linecap="round"><g transform="translate(98.349718789343 307.8723086702188) rotate(90.57147429857486 -17.139669944538184 12.894893880481561)"><path d="M-3.03 -3.32 C-13.68 5.9, -24.4 19.28, -34.55 29.11 M0.27 1.75 C-10.17 6.1, -18.99 14.17, -33.4 27.17" stroke="#c92a2a" stroke-width="1" fill="none"></path></g></g><g stroke-linecap="round"><g transform="translate(96.45262657739073 303.0647392255785) rotate(0 -13.974410432724284 19.13878929849568)"><path d="M-2.44 1.33 C-8.29 7.39, -13.05 13.06, -28.44 38.1 M1.15 0.17 C-10.4 12.56, -21.67 27.31, -29.1 35.27" stroke="#c92a2a" stroke-width="1" fill="none"></path></g></g><g stroke-linecap="round"><g transform="translate(96.42790869546764 310.5959993748619) rotate(90.57147429857486 -13.673955076380082 12.451357861528834)"><path d="M3.66 0.43 C-13.31 5.97, -21.6 21.48, -29.81 26.71 M1.49 -1.8 C-12.11 12.21, -25.38 21.64, -31.01 25.48" stroke="#c92a2a" stroke-width="1" fill="none"></path></g></g><g transform="translate(693.6211378309465 10) rotate(0 332.50000000000006 19.5)"><text x="0" y="30" font-family="Cascadia, Segoe UI Emoji" font-size="28px" fill="#1864ab" text-anchor="start" style="white-space: pre;" direction="ltr">老生常谈话题之「不要把 master 合到自己的分支」</text></g><g stroke-linecap="round"><g transform="translate(958.8787400987417 470.46029324001734) rotate(0 85.57350629630184 7.516130863594356)"><path d="M2.83 0.45 C62.87 8.71, 126.1 13.77, 168.7 11.36 M-0.05 -1.35 C45.54 2.18, 89.23 4.84, 171.19 16.38" stroke="#1864ab" stroke-width="1" fill="none"></path></g></g><g stroke-linecap="round"><g transform="translate(957.762881808811 524.5461900499132) rotate(0 86.21277746496105 -7.972737730170309)"><path d="M1.8 -3.55 C60.57 1.24, 117.99 -9.52, 169.03 -15.63 M0.41 -0.32 C65.11 -9.4, 133.42 -12.09, 172.02 -12.99" stroke="#1864ab" stroke-width="1" fill="none"></path></g></g><g stroke-linecap="round"><g transform="translate(1064.0044725206164 448.06256877777923) rotate(0 50.59099419864896 45.80680219051936)"><path d="M1.35 -3.6 C37.03 20.71, 73.16 37.37, 99.1 51.14 M1.4 -0.38 C37.11 17.92, 75.5 36.34, 99.83 50.98 M98.76 52.73 C83.08 58.25, 57.77 64.95, 3.3 95.22 M96.98 50.02 C62.88 64.54, 25.52 81.5, 2.83 92.3" stroke="#1864ab" stroke-width="1" fill="none"></path></g></g><g transform="translate(795.3819681803391 60.706039670914095) rotate(0 272.50000000000006 11.5)"><text x="0" y="17" font-family="Cascadia, Segoe UI Emoji" font-size="16px" fill="#666" text-anchor="start" style="white-space: pre;" direction="ltr">———— 怎么才能像 GitHub / GitLab 那样自然的把自己分支合到 master</text></g></svg>